<?xml version="1.0" encoding="UTF-8"?>
<svg width="15px" height="17px" viewBox="0 0 15 17" version="1.1" xmlns="http://www.w3.org/2000/svg" xmlns:xlink="http://www.w3.org/1999/xlink">
    <!-- Generator: Sketch 57 (83077) - https://sketch.com -->
    <title>google@1,5x</title>
    <desc>Created with Sketch.</desc>
    <g id="Page-1" stroke="none" stroke-width="1" fill="none" fill-rule="evenodd">
        <g id="EPIPAY-Homepage" transform="translate(-210.000000, -5882.000000)" fill="#1E2432">
            <g id="google" transform="translate(210.870449, 5882.000000)">
                <path d="M4.94734997,3.62680304 C5.05439256,3.62680304 5.1463809,3.58764077 5.22331777,3.50931506 C5.30025463,3.43098935 5.33872248,3.33734044 5.33872248,3.22836554 C5.33872248,3.11939064 5.30025463,3.02574173 5.22331777,2.94741602 C5.1463809,2.86909031 5.05439256,2.82992804 4.94734997,2.82992804 C4.84030738,2.82992804 4.74999155,2.86909031 4.67639977,2.94741602 C4.60280799,3.02574173 4.56601265,3.11939064 4.56601265,3.22836554 C4.56601265,3.33734044 4.60280799,3.43098935 4.67639977,3.50931506 C4.74999155,3.58764077 4.84030738,3.62680304 4.94734997,3.62680304 Z" id="Path"></path>
                <path d="M9.18220126,3.62680304 C9.28924385,3.62680304 9.37955968,3.58764077 9.45315146,3.50931506 C9.52674324,3.43098935 9.56353858,3.33734044 9.56353858,3.22836554 C9.56353858,3.11939064 9.52674324,3.02574173 9.45315146,2.94741602 C9.37955968,2.86909031 9.28924385,2.82992804 9.18220126,2.82992804 C9.07515867,2.82992804 8.98317032,2.86909031 8.90623346,2.94741602 C8.8292966,3.02574173 8.79082875,3.11939064 8.79082875,3.22836554 C8.79082875,3.33734044 8.8292966,3.43098935 8.90623346,3.50931506 C8.98317032,3.58764077 9.07515867,3.62680304 9.18220126,3.62680304 Z" id="Path"></path>
                <path d="M1.03362484,5.50661072 C1.31461164,5.50661072 1.55545385,5.60877315 1.75615871,5.8131011 C1.95686357,6.01742904 2.05721449,6.26261889 2.05721449,6.54867801 L2.05721449,10.9417068 C2.05721449,11.2345769 1.95853608,11.4831721 1.76117631,11.6875001 C1.56381653,11.891828 1.3213018,11.9939905 1.03362484,11.9939905 C0.745947881,11.9939905 0.501760635,11.891828 0.301055779,11.6875001 C0.100350923,11.4831721 4.97379915e-14,11.2345769 4.97379915e-14,10.9417068 L4.97379915e-14,6.54867801 C4.97379915e-14,6.26261889 0.100350923,6.01742904 0.301055779,5.8131011 C0.501760635,5.60877315 0.745947881,5.50661072 1.03362484,5.50661072 Z" id="Path"></path>
                <path d="M11.670929,5.70072129 L11.670929,12.5048078 C11.670929,12.8181106 11.563888,13.083733 11.3498029,13.3016828 C11.1357177,13.5196326 10.8781503,13.6286058 10.577093,13.6286058 L9.82445359,13.6286058 L9.82445359,15.9477164 C9.82445359,16.2405865 9.72410267,16.4891817 9.52339781,16.6935097 C9.32269295,16.8978376 9.07850571,17 8.79082875,17 C8.50315179,17 8.25896454,16.8978376 8.05825968,16.6935097 C7.85755483,16.4891817 7.75720391,16.2405865 7.75720391,15.9477164 L7.75720391,13.6286058 L6.37234732,13.6286058 L6.37234732,15.9477164 C6.37234732,16.2405865 6.2719964,16.4891817 6.07129154,16.6935097 C5.87058669,16.8978376 5.62639944,17 5.33872248,17 C5.05773568,17 4.81689347,16.8978376 4.61618861,16.6935097 C4.41548376,16.4891817 4.31513283,16.2405865 4.31513283,15.9477164 L4.30509764,13.6286058 L3.56249338,13.6286058 C3.25474594,13.6286058 2.99383354,13.5196326 2.77974836,13.3016828 C2.56566318,13.083733 2.4586222,12.8181106 2.4586222,12.5048078 L2.4586222,5.70072129 L11.670929,5.70072129 Z" id="Path"></path>
                <path d="M9.34276434,1.56310113 C10.0586117,1.93770236 10.6306119,2.46043351 11.0587823,3.13131025 C11.4869526,3.802187 11.7010346,4.53605385 11.7010346,5.33293283 L2.41848142,5.33293283 C2.41848142,4.53605385 2.63256339,3.802187 3.06073375,3.13131025 C3.48890411,2.46043351 4.0642494,1.93770236 4.78678689,1.56310113 L4.07428821,0.224759795 C4.02745708,0.136217687 4.04418223,0.0681093938 4.12446417,0.0204328738 C4.21143628,-0.0204327149 4.27833689,-5.83533222e-13 4.32516802,0.0817309502 L5.04770189,1.43028863 C5.68326727,1.14422951 6.35561846,1.0012021 7.06477561,1.0012021 C7.77393277,1.0012021 8.44628396,1.14422951 9.08184933,1.43028863 L9.8043832,0.0817309502 C9.85121434,-5.83533222e-13 9.91811495,-0.0204327149 10.0050871,0.0204328738 C10.085369,0.0681093938 10.1020942,0.136217687 10.055263,0.224759795 L9.34276434,1.56310113 Z" id="Path"></path>
                <path d="M14.1295512,6.54867801 L14.1295512,10.9417068 C14.1295512,11.2345769 14.0292003,11.4831721 13.8284954,11.6875001 C13.6277906,11.891828 13.3836033,11.9939905 13.0959264,11.9939905 C12.8149396,11.9939905 12.5740974,11.891828 12.3733925,11.6875001 C12.1726877,11.4831721 12.0723367,11.2345769 12.0723367,10.9417068 L12.0723367,6.54867801 C12.0723367,6.25580796 12.1726877,6.0089154 12.3733925,5.80799292 C12.5740974,5.60707045 12.8149396,5.50661072 13.0959264,5.50661072 C13.3836033,5.50661072 13.6277906,5.60707045 13.8284954,5.80799292 C14.0292003,6.0089154 14.1295512,6.25580796 14.1295512,6.54867801 Z" id="Path"></path>
            </g>
        </g>
    </g>
</svg>