<?xml version="1.0" encoding="UTF-8"?>
<svg width="669px" height="844px" viewBox="0 0 669 844" version="1.1" xmlns="http://www.w3.org/2000/svg" xmlns:xlink="http://www.w3.org/1999/xlink">
    <!-- Generator: Sketch 57 (83077) - https://sketch.com -->
    <title>Fill 1@1,5x</title>
    <desc>Created with Sketch.</desc>
    <g id="Page-1" stroke="none" stroke-width="1" fill="none" fill-rule="evenodd">
        <g id="EPIPAY-Homepage" transform="translate(0.000000, -1315.000000)" fill="#F9FCFF">
            <path d="M-243.648734,1467.33658 C-315.404754,1512.17881 -415.340629,1601.70925 -416,1699.71981 L-416,1699.71981 L-416,1701.65306 C-415.72801,1742.87527 -397.784884,1785.55319 -352.716895,1826.99875 L-352.716895,1826.99875 C-199.693433,1967.73345 -48.0381663,1925.87966 91.2456575,1890.84233 L91.2456575,1890.84233 C250.393024,1850.79857 333.712758,1893.09138 408.988168,1935.38419 L408.988168,1935.38419 C476.12035,1973.09418 536.856636,2010.81958 639.281637,1990.12376 L639.281637,1990.12376 C866.509031,1944.20321 767.82596,1661.68632 504.357902,1499.08507 L504.357902,1499.08507 C372.590904,1417.76518 225.221547,1385.0077 90.9736671,1385 L90.9736671,1385 C-43.2000336,1384.9923 -164.244015,1417.70356 -243.648734,1467.33658" id="Fill-1" transform="translate(175.000000, 1690.500000) rotate(24.000000) translate(-175.000000, -1690.500000) "></path>
        </g>
    </g>
</svg>