<?xml version="1.0" encoding="UTF-8"?>
<svg width="593px" height="923px" viewBox="0 0 593 923" version="1.1" xmlns="http://www.w3.org/2000/svg" xmlns:xlink="http://www.w3.org/1999/xlink">
    <!-- Generator: Sketch 57 (83077) - https://sketch.com -->
    <title>Fill 1@1,5x</title>
    <desc>Created with Sketch.</desc>
    <g id="Page-1" stroke="none" stroke-width="1" fill="none" fill-rule="evenodd">
        <g id="EPIPAY-Homepage" transform="translate(-847.000000, -1779.000000)" fill="#F9FCFF">
            <path d="M1002.29326,1913.16586 C910.692605,2039.25671 1063.67875,2240.39236 975.843051,2440.19077 L975.843051,2440.19077 C943.048935,2514.77389 929.270631,2576.61342 929,2626.56103 L929,2626.56103 L929,2629.53798 C929.6129,2741.64351 999.061603,2792.79305 1073.47718,2793 L1073.47718,2793 L1074.23336,2793 C1115.226,2792.9204 1157.66732,2777.41475 1190.8833,2748.13869 L1190.8833,2748.13869 C1311.7917,2641.58113 1378.38286,2292.44931 1576.57234,2290.62652 L1576.57234,2290.62652 C2024.73736,2286.51132 1666.54921,1961.66479 1507.49775,1888.89649 L1507.49775,1888.89649 C1395.02667,1837.43652 1298.25219,1813 1217.96232,1813 L1217.96232,1813 C1122.10321,1813 1049.74125,1847.84791 1002.29326,1913.16586" id="Fill-1" transform="translate(1361.500000, 2303.000000) rotate(16.000000) translate(-1361.500000, -2303.000000) "></path>
        </g>
    </g>
</svg>