<?xml version="1.0" encoding="UTF-8"?>
<svg width="81px" height="80px" viewBox="0 0 81 80" version="1.1" xmlns="http://www.w3.org/2000/svg" xmlns:xlink="http://www.w3.org/1999/xlink">
    <!-- Generator: Sketch 57 (83077) - https://sketch.com -->
    <title>Circle Icon@1,5x</title>
    <desc>Created with Sketch.</desc>
    <g id="Page-1" stroke="none" stroke-width="1" fill="none" fill-rule="evenodd">
        <g id="EPIPAY-Homepage" transform="translate(-566.000000, -4752.000000)">
            <g id="Bubble-List-Copy-4" transform="translate(566.000000, 4752.000000)">
                <g id="Circle-Icon" transform="translate(0.450000, 0.000000)">
                    <circle id="Oval" fill="#549CE1" cx="39.9999976" cy="39.9999976" r="39.9999976"></circle>
                    <g id="Icons/BPJS" transform="translate(14.399999, 14.399999)" fill="#FFFFFF">
                        <path d="M11.2774815,30.9404577 L11.2774815,40.7999976 L8.06890551,40.7999976 L8.06890551,30.9404577 L11.2774815,30.9404577 Z M41.6828984,32.5407706 C38.0712302,34.461409 32.0367306,37.3693159 28.3936896,38.8280896 C27.4482292,39.2062577 26.5089483,39.3258868 25.5116754,39.0879432 C23.582727,38.6278314 22.0972751,38.483663 19.1149632,38.4994383 C16.9072036,38.5117876 14.6699805,38.7334597 12.6047172,39.1980359 L11.9904984,39.3447295 L11.9904984,31.9794341 C15.3326462,30.6990085 16.1535664,29.6258524 19.473373,29.6258524 C22.0017626,29.6258524 23.9334658,30.7710197 26.2284811,30.9237087 L26.7261808,30.9404577 L30.8816432,30.9404577 C31.8120177,30.9404577 32.5794214,31.6023633 32.6576235,32.4421805 L32.6641854,32.5837144 L32.6641854,32.8317366 C32.428041,33.4087231 31.8541692,33.8338191 31.1621688,33.8916032 L31.0004794,33.8983197 L21.0182429,33.8983197 L21.0182429,34.5556223 L31.0004794,34.5556223 C32.2834344,34.5556223 33.3420268,33.6586233 33.4794014,32.5083437 C35.5718683,31.6437716 39.8651807,29.7849197 40.6984598,29.4220886 C42.6074436,28.5916962 44.7873739,30.8887499 41.6828984,32.5407706 Z M39.9860309,11.8895465 L39.9860309,19.4283322 C36.5651584,20.7389183 35.7249014,21.8373528 32.3268964,21.8373528 C29.554097,21.8373528 27.4824038,20.4917818 24.9032479,20.4917818 L24.9032479,20.4917818 L20.6499031,20.4917818 C19.6447086,20.4917818 18.8253729,19.7369165 18.8253729,18.8098181 L18.8253729,18.8098181 L18.8253729,18.5559537 C19.0856725,17.9199471 19.7468823,17.4642471 20.5282677,17.4642471 L20.5282677,17.4642471 L30.7456369,17.4642471 L30.7456369,16.7914616 L20.5282677,16.7914616 C19.2150925,16.7914616 18.1315649,17.7095895 17.9909544,18.8869641 C15.8491992,19.7719013 11.4547574,21.6745387 10.6018503,22.0459163 C8.64790012,22.8958686 6.41662131,20.5447076 9.59422312,18.8537734 C13.2909646,16.8878942 19.4676075,13.9114911 23.1964607,12.4183559 C24.1641915,12.0312799 25.1255973,11.908833 26.1463611,12.1523813 C28.1207461,12.6233312 29.6411879,12.7708955 32.6937486,12.7547486 C35.1794886,12.7408444 37.7017191,12.4676935 39.9860309,11.8895465 L39.9860309,11.8895465 Z M43.9999974,10.3999994 L43.9999974,20.4917818 L40.715843,20.4917818 L40.715843,10.3999994 L43.9999974,10.3999994 Z" id="Combined-Shape"></path>
                    </g>
                </g>
            </g>
        </g>
    </g>
</svg>