<?xml version="1.0" encoding="UTF-8"?>
<svg width="171px" height="139px" viewBox="0 0 171 139" version="1.1" xmlns="http://www.w3.org/2000/svg" xmlns:xlink="http://www.w3.org/1999/xlink">
    <!-- Generator: Sketch 57 (83077) - https://sketch.com -->
    <title>Group 17@1,5x</title>
    <desc>Created with Sketch.</desc>
    <g id="Page-1" stroke="none" stroke-width="1" fill="none" fill-rule="evenodd">
        <g id="EPIPAY-Homepage" transform="translate(-187.000000, -1050.000000)">
            <g id="Icon" transform="translate(172.000000, 1032.000000)">
                <g id="Group-17">
                    <path d="M76.869518,47.47182 C76.869518,47.47182 47.809716,35.22026 47.876872,63.08088 C47.930638,85.3723 47.895206,98.787 30.955826,98.97825 C14.016652,99.17018 1.762536,138.32662 41.813262,139.49656 C81.864194,140.66633 97.486822,107.03625 109.479318,137.65155 C121.47202,168.26736 165.582388,160.25611 161.6379,129.70864 C157.693412,99.16083 164.240092,96.95015 177.985236,84.91704 C204.893162,61.36031 158.298022,1.37955 123.510596,39.19707 C88.72317,77.01408 89.521008,55.85996 76.869518,47.47182 Z" id="Shape-505" fill="#ECF5FF"></path>
                    <path d="M143.242941,26.0705251 L143.242941,33.6980129 L55.8954522,33.6980129 L55.8954522,26.0705251 C55.8954522,21.8582074 59.296155,18.4435523 63.4909329,18.4435523 L135.647307,18.4435523 C135.647307,18.4435523 143.242941,18.4435523 143.242941,26.0705251 Z" id="Fill-2" fill="#4A90E2"></path>
                    <path d="M143.242941,33.6980129 L143.242941,98.529805 C143.242941,102.742226 139.842034,106.157138 135.647307,106.157138 L63.4909329,106.157138 C59.296155,106.157138 55.8954522,102.742226 55.8954522,98.529805 L55.8954522,33.6980129 L143.242941,33.6980129 Z" id="Fill-3" fill="#F6FAFF"></path>
                    <path d="M69.1875049,27.9773971 L65.3896877,27.9773971 C64.341006,27.9773971 63.4907791,27.1236046 63.4907791,26.0705251 C63.4907791,25.0174457 64.341006,24.1636532 65.3896877,24.1636532 L69.1873511,24.1636532 C70.2360327,24.1636532 71.0862597,25.0174457 71.0862597,26.0705251 C71.0862597,27.1236046 70.2362379,27.9773971 69.1875049,27.9773971 Z" id="Fill-4" fill="#FFFFFF"></path>
                    <path d="M80.5804952,27.9773971 L76.7831907,27.9773971 C75.7345091,27.9773971 74.8842821,27.1236046 74.8842821,26.0705251 C74.8842821,25.0174457 75.7339963,24.1636532 76.7826779,24.1636532 L80.5804952,24.1636532 C81.6291768,24.1636532 82.4794038,25.0174457 82.4794038,26.0705251 C82.4794038,27.1236046 81.6291768,27.9773971 80.5804952,27.9773971 Z" id="Fill-5" fill="#FFFFFF"></path>
                    <path d="M135.647307,27.9773971 L131.850002,27.9773971 C130.801321,27.9773971 129.951094,27.1236046 129.951094,26.0705251 C129.951094,25.0174457 130.801321,24.1636532 131.850002,24.1636532 L135.647307,24.1636532 C136.695989,24.1636532 137.546216,25.0174457 137.546216,26.0705251 C137.546216,27.1236046 136.695989,27.9773971 135.647307,27.9773971 Z" id="Fill-6" fill="#FFFFFF"></path>
                    <path d="M99.5690686,45.1387296 C113.193212,45.1387296 124.254368,56.2462715 124.254368,69.9275498 C124.254368,83.6087767 113.193212,94.7162156 99.5690686,94.7162156 C85.9449249,94.7162156 74.8837693,83.6087767 74.8837693,69.9275498 C74.8837693,56.2462715 85.9449249,45.1387296 99.5690686,45.1387296 Z" id="Fill-7" fill="#FED049"></path>
                    <path d="M116.658733,96.622933 L99.5690686,96.622933 C84.8936792,96.6071755 73.0007576,84.6644823 72.9853735,69.9275498 L72.9853735,64.206934 C72.9853735,63.1538546 73.8356005,62.3000621 74.8842821,62.3000621 C75.9329638,62.3000621 76.7831907,63.1538546 76.7831907,64.206934 L76.7831907,69.9275498 C76.7965236,82.5591989 86.9905297,92.7957489 99.5690686,92.8093436 L116.659246,92.8093436 C117.707928,92.8093436 118.558155,93.6631362 118.558155,94.7162156 C118.557642,95.7693465 117.707415,96.622933 116.658733,96.622933 Z" id="Fill-8" fill="#F6B445"></path>
                    <path d="M124.254368,77.5548316 C123.205686,77.5548316 122.355459,76.7010906 122.355459,75.6479597 L122.355459,69.9275498 C122.342126,57.2957462 112.14812,47.0589903 99.5690686,47.0456015 L82.4794038,47.0456015 C81.4307222,47.0456015 80.5804952,46.191809 80.5804952,45.1387296 C80.5804952,44.0856501 81.4307222,43.2318576 82.4794038,43.2318576 L99.5690686,43.2318576 C114.244458,43.2478212 126.13738,55.1901023 126.153277,69.9275498 L126.153277,75.6478052 C126.153277,76.7010906 125.30305,77.5548316 124.254368,77.5548316 Z" id="Fill-9" fill="#F6B445"></path>
                    <path d="M74.8842821,47.0456015 L71.0862597,47.0456015 C70.0375781,47.0456015 69.1873511,46.191809 69.1873511,45.1387296 C69.1873511,44.0856501 70.0375781,43.2318576 71.0862597,43.2318576 L74.8837693,43.2318576 C75.9324509,43.2318576 76.7826779,44.0856501 76.7826779,45.1387296 C76.7826779,46.191809 75.9329638,47.0456015 74.8842821,47.0456015 Z" id="Fill-10" fill="#4A90E2"></path>
                    <path d="M128.052185,96.622933 L124.254368,96.622933 C123.205686,96.622933 122.355459,95.7691405 122.355459,94.7160611 C122.355459,93.6629302 123.205686,92.8091892 124.254368,92.8091892 L128.052185,92.8091892 C129.100867,92.8091892 129.951094,93.6629302 129.951094,94.7160611 C129.951094,95.7693465 129.100867,96.622933 128.052185,96.622933 Z" id="Fill-11" fill="#4A90E2"></path>
                    <path d="M129.951094,87.0888823 L116.658733,87.0888823 C115.610052,87.0888823 114.759825,86.2350898 114.759825,85.1820104 C114.759825,84.1288795 115.610052,83.2751384 116.658733,83.2751384 L129.951094,83.2751384 C130.999776,83.2751384 131.850002,84.1288795 131.850002,85.1820104 C131.850002,86.2350898 130.999776,87.0888823 129.951094,87.0888823 Z" id="Fill-12" fill="#4A90E2"></path>
                    <path d="M84.3783124,56.5794462 L71.0862597,56.5794462 C70.0375781,56.5794462 69.1873511,55.7261687 69.1873511,54.6725743 C69.1873511,53.6194949 70.0375781,52.7662173 71.0862597,52.7662173 L84.3783124,52.7662173 C85.4269941,52.7662173 86.2772211,53.6200098 86.2772211,54.6730893 C86.2772211,55.7261687 85.4269941,56.5794462 84.3783124,56.5794462 Z" id="Fill-13" fill="#4A90E2"></path>
                    <path d="M95.2076812,69.8312536 L93.4467165,69.8312536 L93.4467165,73.7747657 L91.2360238,73.7747657 L91.2360238,63.0024583 L95.2220396,63.0024583 C96.4896881,63.0024583 97.4670901,63.2856826 98.1547586,63.8531611 C98.8424271,64.4201247 99.186005,65.2219069 99.186005,66.2574779 C99.186005,66.9928312 99.0275489,67.6056255 98.7106368,68.096376 C98.3942375,68.5871265 97.9137413,68.977976 97.2706867,69.2689246 L99.5911192,73.67126 L99.5911192,73.7747657 L97.2188936,73.7747657 L95.2076812,69.8312536 Z M93.4467165,68.0335517 L95.2297317,68.0335517 C95.7845843,68.0335517 96.214313,67.8914246 96.5189178,67.6082003 C96.8235227,67.3244611 96.9758251,66.9336115 96.9758251,66.4351368 C96.9758251,65.9273929 96.8322403,65.5277891 96.544558,65.2368405 C96.2573884,64.9458919 95.816378,64.8001602 95.2220396,64.8001602 L93.4467165,64.8001602 L93.4467165,68.0335517 Z" id="Fill-14" fill="#F6B445"></path>
                    <path d="M107.902114,69.8461872 C107.902114,71.0789853 107.623662,72.0671806 107.066245,72.8092283 C106.508316,73.5517909 105.755521,73.9230722 104.807862,73.9230722 C104.002249,73.9230722 103.351502,73.6419077 102.855109,73.0795787 L102.855109,76.8527443 L100.725952,76.8527443 L100.725952,65.7693022 L102.700755,65.7693022 L102.774086,66.553576 C103.289965,65.9320274 103.962763,65.6215106 104.79299,65.6215106 C105.77552,65.6215106 106.539084,65.9866125 107.084193,66.7163013 C107.629815,67.446505 107.902114,68.4527237 107.902114,69.7349573 L107.902114,69.8461872 Z M105.772956,69.6906713 C105.772956,68.9460489 105.641679,68.3713611 105.378611,67.9666078 C105.116056,67.5623695 104.734018,67.3599928 104.23301,67.3599928 C103.564828,67.3599928 103.105869,67.6164396 102.855109,68.129848 L102.855109,71.4070105 C103.115613,71.9348376 103.579699,72.1990087 104.247881,72.1990087 C105.264769,72.1990087 105.772956,71.3627246 105.772956,69.6906713 Z" id="Fill-15" fill="#F6B445"></path>
                </g>
            </g>
        </g>
    </g>
</svg>