<?xml version="1.0" encoding="UTF-8"?>
<svg width="16px" height="16px" viewBox="0 0 16 16" version="1.1" xmlns="http://www.w3.org/2000/svg" xmlns:xlink="http://www.w3.org/1999/xlink">
    <!-- Generator: Sketch 57 (83077) - https://sketch.com -->
    <title>Path@1,5x</title>
    <desc>Created with Sketch.</desc>
    <g id="Page-1" stroke="none" stroke-width="1" fill="none" fill-rule="evenodd">
        <g id="EPIPAY-Homepage" transform="translate(-143.000000, -5882.000000)" fill="#1E2432">
            <path d="M157.561065,5882.2906 C157.79522,5882.2906 157.995922,5882.37573 158.163176,5882.54601 C158.33043,5882.71628 158.414056,5882.92061 158.414056,5883.15899 L158.414056,5897.11452 C158.414056,5897.3529 158.33043,5897.55722 158.163176,5897.7275 C157.995922,5897.89777 157.79522,5897.98291 157.561065,5897.98291 L153.637304,5897.98291 L153.637304,5891.90418 L155.634308,5891.90418 L155.935363,5889.53399 L153.637304,5889.53399 L153.637304,5888.02197 C153.637304,5887.64056 153.715912,5887.3545 153.873131,5887.1638 C154.03035,5886.97309 154.33642,5886.87774 154.791351,5886.87774 L156.015645,5886.86752 L156.015645,5884.75274 C155.594165,5884.69144 154.998749,5884.66079 154.229381,5884.66079 C153.319519,5884.66079 152.591974,5884.93322 152.046726,5885.4781 C151.501478,5886.02297 151.228858,5886.7926 151.228858,5887.78699 L151.228858,5889.53399 L149.221819,5889.53399 L149.221819,5891.90418 L151.228858,5891.90418 L151.228858,5897.98291 L143.852991,5897.98291 C143.618836,5897.98291 143.418134,5897.89777 143.25088,5897.7275 C143.083626,5897.55722 143,5897.3529 143,5897.11452 L143,5883.15899 C143,5882.92061 143.083626,5882.71628 143.25088,5882.54601 C143.418134,5882.37573 143.618836,5882.2906 143.852991,5882.2906 L157.561065,5882.2906 Z" id="Path"></path>
        </g>
    </g>
</svg>