<?xml version="1.0" encoding="UTF-8"?>
<svg width="81px" height="80px" viewBox="0 0 81 80" version="1.1" xmlns="http://www.w3.org/2000/svg" xmlns:xlink="http://www.w3.org/1999/xlink">
    <!-- Generator: Sketch 57 (83077) - https://sketch.com -->
    <title>Circle Icon@1,5x</title>
    <desc>Created with Sketch.</desc>
    <g id="Page-1" stroke="none" stroke-width="1" fill="none" fill-rule="evenodd">
        <g id="EPIPAY-Homepage" transform="translate(-961.000000, -4978.000000)">
            <g id="Bubble-List-Copy-11" transform="translate(961.000000, 4978.000000)">
                <g id="Circle-Icon" transform="translate(0.450000, 0.000000)">
                    <circle id="Oval" fill="#549CE1" cx="39.9999976" cy="39.9999976" r="39.9999976"></circle>
                    <g id="Icons/BPJS-Copy-3" transform="translate(14.399999, 14.399999)" fill="#FFFFFF">
                        <path d="M42.2672153,33.8941564 L38.633786,17.2255808 L38.6257318,17.2270976 L38.6257318,17.2255808 L26.5445039,17.2255808 L26.5445039,15.8978788 C26.5445039,15.6374956 26.6487045,15.406437 26.8218688,15.2284663 C26.9965432,15.0530235 27.2286034,14.950387 27.4883498,14.950387 L35.0391173,14.950387 C35.8178531,14.950387 36.5316523,14.6283207 37.0390639,14.1146325 C37.5499991,13.6029667 37.8706551,12.8880502 37.8706551,12.1058891 L37.8706551,10.3999994 L35.9829632,10.3999994 L35.9829632,12.1058891 C35.9829632,12.366778 35.8787626,12.5978366 35.7055983,12.7758073 C35.5309239,12.9512501 35.2988637,13.0543922 35.0391173,13.0543922 L27.4883498,13.0543922 C26.709614,13.0543922 25.9958148,13.3759529 25.4884032,13.8896411 C24.977468,14.4013069 24.656812,15.1162234 24.656812,15.8978788 L24.656812,17.2255808 L12.5755841,17.2255808 L12.5755841,17.2270976 L12.5655164,17.2255808 L8.93208714,33.8941564 C8.26359253,36.9636456 10.1980991,39.995215 13.2521329,40.66665 C16.3076768,41.338085 19.3259702,39.3945638 19.9944648,36.3276026 L20.9342837,32.0143407 L30.2630052,32.0143407 L31.202824,36.3276026 C31.8713186,39.3965862 34.8896121,41.3401073 37.945156,40.66665 C41.0032168,39.995215 42.9377234,36.9616232 42.2672153,33.8941564 L42.2672153,33.8941564 Z M21.6365051,25.9471572 L19.3712748,25.9471572 L19.3712748,28.222351 L16.7285062,28.222351 L16.7285062,25.9471572 L14.463276,25.9471572 L14.463276,23.2927644 L16.7285062,23.2927644 L16.7285062,21.0175705 L19.3712748,21.0175705 L19.3712748,23.2927644 L21.6365051,23.2927644 L21.6365051,25.9471572 Z M30.3198876,23.1026593 C30.3198876,22.3700469 30.9118678,21.7759685 31.6412719,21.7759685 C32.3706761,21.7759685 32.9626562,22.3700469 32.9626562,23.1026593 C32.9626562,23.8357773 32.3706761,24.4303613 31.6412719,24.4303613 C30.9118678,24.4303613 30.3198876,23.8357773 30.3198876,23.1026593 L30.3198876,23.1026593 Z M32.3963487,28.222351 C31.6669445,28.222351 31.0749644,27.627767 31.0749644,26.894649 C31.0749644,26.1620366 31.6669445,25.5679582 32.3963487,25.5679582 C33.1257528,25.5679582 33.717733,26.1620366 33.717733,26.894649 C33.717733,27.627767 33.1257528,28.222351 32.3963487,28.222351 L32.3963487,28.222351 Z M34.0952713,21.9650624 C34.0952713,21.23245 34.6872515,20.6383716 35.4166556,20.6383716 C36.1460598,20.6383716 36.7380399,21.23245 36.7380399,21.9650624 C36.7380399,22.6981804 36.1460598,23.2927644 35.4166556,23.2927644 C34.6872515,23.2927644 34.0952713,22.6981804 34.0952713,21.9650624 L34.0952713,21.9650624 Z M36.1717324,27.0847541 C35.4423283,27.0847541 34.8503481,26.4901701 34.8503481,25.7570521 C34.8503481,25.0244397 35.4423283,24.4303613 36.1717324,24.4303613 C36.9011365,24.4303613 37.4931167,25.0244397 37.4931167,25.7570521 C37.4931167,26.4901701 36.9011365,27.0847541 36.1717324,27.0847541 L36.1717324,27.0847541 Z" id="Page-1"></path>
                    </g>
                </g>
            </g>
        </g>
    </g>
</svg>