<?xml version="1.0" encoding="UTF-8"?>
<svg width="81px" height="80px" viewBox="0 0 81 80" version="1.1" xmlns="http://www.w3.org/2000/svg" xmlns:xlink="http://www.w3.org/1999/xlink">
    <!-- Generator: Sketch 57 (83077) - https://sketch.com -->
    <title>Circle Icon@1,5x</title>
    <desc>Created with Sketch.</desc>
    <g id="Page-1" stroke="none" stroke-width="1" fill="none" fill-rule="evenodd">
        <g id="EPIPAY-Homepage" transform="translate(-961.000000, -4639.000000)">
            <g id="Bubble-List-Copy-6" transform="translate(961.000000, 4639.000000)">
                <g id="Circle-Icon" transform="translate(0.450000, 0.000000)">
                    <circle id="Oval" fill="#549CE1" cx="39.9999976" cy="39.9999976" r="39.9999976"></circle>
                    <g id="Icons/BPJS-Copy-4" transform="translate(14.399999, 14.399999)" fill="#FFFFFF">
                        <path d="M37.4344082,26.4505566 L32.735027,29.0633157 L28.4523388,25.0591692 L32.450537,21.2298233 L37.4344082,24.017064 C37.4344082,24.017064 38.3999977,24.4452936 38.3999977,25.1527896 C38.3999977,25.9591691 37.4344082,26.4505566 37.4344082,26.4505566 L37.4344082,26.4505566 Z M13.6691419,11.2374794 C13.7516899,11.2156293 13.8391401,11.1999993 13.9382925,11.1999993 C14.6873913,11.1999993 15.3866767,11.6867617 15.3866767,11.6867617 L30.8463871,20.3326942 L27.422071,24.0958518 L13.6691419,11.2374794 L13.6691419,11.2374794 Z M26.3848451,25.2357242 L13.6999788,39.1757552 C12.633023,38.9601253 12.8102955,37.3218479 12.812035,37.158371 L12.812035,12.8223278 C12.812035,12.8223278 12.7924259,11.4968095 13.6443143,11.2448159 L26.3848451,25.2357242 L26.3848451,25.2357242 Z M30.8329454,30.1205724 L15.547661,38.618339 C15.547661,38.618339 14.5730577,39.1999977 13.9441436,39.1999977 C13.859698,39.1999977 13.7817361,39.1923422 13.7091508,39.1784666 L27.2618774,26.1987225 L30.8329454,30.1205724 L30.8329454,30.1205724 Z" id="Shape"></path>
                    </g>
                </g>
            </g>
        </g>
    </g>
</svg>