<?xml version="1.0" encoding="UTF-8"?>
<svg width="171px" height="142px" viewBox="0 0 171 142" version="1.1" xmlns="http://www.w3.org/2000/svg" xmlns:xlink="http://www.w3.org/1999/xlink">
    <!-- Generator: Sketch 57 (83077) - https://sketch.com -->
    <title>Group 23@1,5x</title>
    <desc>Created with Sketch.</desc>
    <g id="Page-1" stroke="none" stroke-width="1" fill="none" fill-rule="evenodd">
        <g id="EPIPAY-Homepage" transform="translate(-1086.000000, -1047.000000)">
            <g id="Icon" transform="translate(1071.000000, 1032.000000)">
                <g id="Group-23">
                    <path d="M76.869518,47.47182 C76.869518,47.47182 47.809716,35.22026 47.876872,63.08088 C47.930638,85.3723 47.895206,98.787 30.955826,98.97825 C14.016652,99.17018 1.762536,138.32662 41.813262,139.49656 C81.864194,140.66633 97.486822,107.03625 109.479524,137.65155 C121.47202,168.26736 165.582388,160.25611 161.6379,129.70864 C157.693412,99.16083 164.240092,96.95015 177.985236,84.91704 C204.893162,61.36031 158.298022,1.37955 123.510596,39.19707 C88.723376,77.01408 89.521008,55.85996 76.869518,47.47182 Z" id="Shape-505-copy-2" fill="#ECF5FF"></path>
                    <g id="Group-28" transform="translate(67.000000, 15.000000)">
                        <path d="M83.8480141,0 L2.32131875,0 C1.04462823,0 0,1.02843314 0,2.28585113 L0,80.0937566 C0,81.3510032 1.04462823,82.3797219 2.32131875,82.3797219 L83.8480141,82.3797219 C85.1237188,82.3797219 86.168637,81.3510032 86.168637,80.0937566 L86.168637,2.28585113 C86.168637,1.02843314 85.1237188,0 83.8480141,0 Z" id="Fill-1" fill="#F2F8FF"></path>
                        <path d="M75.319348,8.83618794 L10.849289,8.83618794 C9.68439663,8.83618794 8.74031713,9.76583211 8.74031713,10.9130404 L8.74031713,61.1106281 C8.74031713,62.2578364 9.68439663,63.1874806 10.849289,63.1874806 L75.319348,63.1874806 C76.4842983,63.1874806 77.4283199,62.2578364 77.4283199,61.1106281 L77.4283199,10.9130404 C77.4283199,9.76640315 76.4842983,8.83618794 75.319348,8.83618794 Z" id="Fill-2" fill="#FAECC8"></path>
                        <path d="M3.46788739,80.0937566 L3.46788739,2.28585113 C3.46788739,1.02843314 4.51251562,0 5.78920614,0 L2.32131875,0 C1.04462823,0 0,1.02843314 0,2.28585113 L0,80.0937566 C0,81.3510032 1.04462823,82.3797219 2.32131875,82.3797219 L5.78920614,82.3797219 C4.51251562,82.3797219 3.46788739,81.3510032 3.46788739,80.0937566 Z" id="Fill-3" fill="#B5D1F2"></path>
                        <path d="M12.2082045,61.1106281 L12.2082045,10.9130404 C12.2082045,9.76640315 13.152226,8.83675897 14.3171764,8.83675897 L10.849289,8.83675897 C9.68439663,8.83675897 8.74031713,9.76640315 8.74031713,10.9130404 L8.74031713,61.1106281 C8.74031713,62.2578364 9.68439663,63.1874806 10.849289,63.1874806 L14.3171764,63.1874806 C13.152226,63.1874806 12.2082045,62.2578364 12.2082045,61.1106281 Z" id="Fill-4" fill="#FAE09D"></path>
                        <path d="M8.74031713,75.9633498 C8.02174743,75.9633498 7.43996808,75.3903738 7.43996808,74.6827478 L7.43996808,69.9204913 C7.43996808,69.2134935 8.02174743,68.6398893 8.74031713,68.6398893 C9.45819098,68.6398893 10.0406662,69.2134935 10.0406662,69.9204913 L10.0406662,74.6827478 C10.0406662,75.3903738 9.45819098,75.9633498 8.74031713,75.9633498 Z" id="Fill-5" fill="#CCD2DB"></path>
                        <path d="M13.1686942,75.9633498 C12.4507624,75.9633498 11.8682872,75.3903738 11.8682872,74.6827478 L11.8682872,69.9204913 C11.8682872,69.2134935 12.4501245,68.6398893 13.1686942,68.6398893 C13.8865681,68.6398893 14.4690433,69.2134935 14.4690433,69.9204913 L14.4690433,74.6827478 C14.4690433,75.3903738 13.8865681,75.9633498 13.1686942,75.9633498 Z" id="Fill-6" fill="#CCD2DB"></path>
                        <path d="M75.0102795,69.9204913 L32.0410644,69.9204913 C32.8950327,70.3820585 33.4735648,71.2748139 33.4735648,72.301591 C33.4735648,73.3283682 32.8943949,74.2218087 32.0410644,74.6827478 L75.0102795,74.6827478 C76.3462903,74.6827478 77.4283199,73.6171403 77.4283199,72.301591 C77.4283199,70.986727 76.3462903,69.9204913 75.0102795,69.9204913 Z" id="Fill-7" fill="#CCD2DB"></path>
                        <path d="M29.0011759,72.301591 C29.0011759,71.2748139 29.5803459,70.3820585 30.4343142,69.9204913 L21.8084046,69.9204913 C20.4732056,69.9204913 19.3904222,70.986727 19.3904222,72.301591 C19.3904222,73.6171403 20.4732056,74.6827478 21.8084046,74.6827478 L30.4343142,74.6827478 C29.5803459,74.2218087 29.0011759,73.3283682 29.0011759,72.301591 Z" id="Fill-8" fill="#3082E2"></path>
                        <path d="M75.0102795,71.6664864 L33.3966166,71.6664864 C33.4459632,71.87046 33.4742027,72.0827706 33.4742027,72.301591 C33.4742027,73.3283682 32.8950327,74.2218087 32.0410644,74.6827478 L75.0108594,74.6827478 C76.3462903,74.6827478 77.4288997,73.6171403 77.4288997,72.301591 C77.4288997,71.7293002 77.2230474,71.2042911 76.8815064,70.7938315 C76.4373292,71.3259786 75.764105,71.6664864 75.0102795,71.6664864 Z" id="Fill-9" fill="#BCC2CC"></path>
                        <path d="M29.0011759,72.301591 C29.0011759,72.0827706 29.0287775,71.87046 29.078762,71.6664864 L21.8090425,71.6664864 C21.054985,71.6664864 20.3818188,71.3266067 19.9380475,70.7938315 C19.5962166,71.2042911 19.3911181,71.7293002 19.3911181,72.301591 C19.3911181,73.6165122 20.4732056,74.6827478 21.8090425,74.6827478 L30.4343142,74.6827478 C29.5803459,74.2218087 29.0011759,73.3283682 29.0011759,72.301591 Z" id="Fill-10" fill="#4A90E2"></path>
                        <path d="M33.9942263,72.301591 C33.9942263,73.8010134 32.7602719,75.0161748 31.2377183,75.0161748 C29.7151067,75.0161748 28.4811523,73.8010134 28.4811523,72.301591 C28.4811523,70.8028538 29.7151067,69.5870643 31.2377183,69.5870643 C32.7602719,69.5870643 33.9942263,70.8028538 33.9942263,72.301591 Z" id="Fill-11" fill="#1C6AC5"></path>
                        <path d="M31.9490397,72.301591 C31.9490397,71.4502928 32.3480453,70.690874 32.9712851,70.1930461 C32.4979406,69.8149642 31.8951121,69.5876924 31.2377183,69.5876924 C29.7151067,69.5876924 28.4811523,70.8028538 28.4811523,72.3022763 C28.4811523,73.8010134 29.7151067,75.016803 31.2377183,75.016803 C31.8951121,75.016803 32.4979406,74.7889602 32.9712851,74.4108783 C32.3480453,73.9129933 31.9490397,73.1535745 31.9490397,72.301591 Z" id="Fill-12" fill="#1E7BE9"></path>
                        <path d="M42.9942073,16.1619896 C37.6987569,16.1619896 33.4065323,20.388787 33.4065323,25.6032457 L33.4065323,29.510949 C34.047458,28.9256958 34.959297,28.6078009 35.8488111,28.7249771 L35.8488111,28.2543305 C35.8488111,27.8801316 36.1735359,27.5849068 36.5495789,27.6134014 C40.2560811,27.8756204 44.02834,26.7154496 46.880236,24.8805444 C47.1464523,24.7092341 47.4994746,24.7520617 47.7157646,24.9810465 C50.1541582,27.5622367 50.1396616,27.4619059 50.1396616,27.799216 L50.1396616,28.7230356 C51.11459,28.5793062 51.9797497,28.8758445 52.5813025,29.4261504 L52.5813025,25.6032457 C52.5813025,20.388787 48.2890779,16.1619896 42.9942073,16.1619896 Z" id="Fill-13" fill="#3E4B5A"></path>
                        <path d="M36.8743617,25.6032457 C36.8743617,20.9723843 40.2613578,17.1230407 44.7278321,16.3195951 C44.1650724,16.217951 43.5865403,16.1619896 42.9942073,16.1619896 C37.6987569,16.1619896 33.4065323,20.388787 33.4065323,25.6032457 L33.4065323,29.510949 C34.047458,28.9256958 34.959297,28.6078009 35.8488111,28.7249771 L35.8488111,28.2543305 C35.8488111,27.8801316 36.1735359,27.5849068 36.5495789,27.6134014 C36.6574339,27.6205393 36.7665647,27.623109 36.8743617,27.6283054 L36.8743617,25.6032457 Z" id="Fill-14" fill="#22303A"></path>
                        <path d="M41.8989568,42.2278304 C42.2855534,42.0802179 42.5406363,41.7138422 42.5406363,41.3053241 L42.5406363,39.9690463 C41.2205139,39.881678 40.0509825,39.4841809 39.0727489,38.8684915 L39.0727489,41.8174279 C39.0727489,42.0815313 38.9655897,42.3262767 38.7861213,42.5075231 L41.8989568,42.2278304 Z" id="Fill-15" fill="#FFBEAB"></path>
                        <path d="M37.7737336,44.4717676 C40.8293944,47.6686471 45.1492206,47.6686471 48.2055772,44.4717676 L49.2902742,43.3362083 L47.6947734,42.7276569 C47.3272545,42.5871824 47.0846966,42.2394795 47.0846966,41.8510618 L47.0846966,38.7642777 C45.9499573,39.5346603 44.5759653,39.9878333 43.0961478,39.9878333 C41.5472682,39.9878333 40.1857433,39.5689795 39.0727489,38.8684915 L39.0727489,41.8174279 C39.0727489,42.2258889 38.817666,42.5923217 38.4311274,42.7399341 L36.7369915,43.3866878 L37.7737336,44.4717676 Z" id="Fill-16" fill="#FFBEAB"></path>
                        <path d="M42.5406363,39.9690463 C41.2205139,39.881678 40.0509825,39.4841809 39.0727489,38.8684915 L39.0727489,41.8174279 C39.0727489,42.2258889 38.817666,42.5923217 38.4311274,42.7399341 L36.7369915,43.3866878 L37.7737336,44.4710823 C39.1772987,45.9400686 40.848414,46.7324932 42.5406363,46.851611 L42.5406363,39.9690463 Z" id="Fill-17" fill="#F7AF9F"></path>
                        <path d="M49.9963768,28.3016122 L49.9963768,33.4730148 C49.9963768,33.529376 49.9937094,33.5843666 49.9924337,33.6407277 C51.8509035,33.9177936 53.4490717,32.5951635 53.4490717,30.971484 C53.4490717,29.3439214 51.8496278,28.0283721 49.9963768,28.3016122 Z" id="Fill-18" fill="#FFBEAB"></path>
                        <path d="M35.9914581,33.4737001 L35.9914581,28.3035537 C34.3735745,28.0911859 32.539401,29.3134853 32.539401,30.971484 C32.539401,32.593222 34.1342639,33.9184218 35.996039,33.6407277 C35.9940675,33.5850518 35.9914581,33.529376 35.9914581,33.4737001 Z" id="Fill-19" fill="#FFBEAB"></path>
                        <path d="M52.2217277,28.784536 C51.6129266,28.379901 50.8312675,28.1786113 49.9963768,28.3016122 L49.9963768,33.4737001 C49.9963768,33.529376 49.9937094,33.5850518 49.9924337,33.6407277 C50.829296,33.76567 51.6122888,33.5636951 52.2217277,33.1577467 L52.2217277,28.784536 Z" id="Fill-20" fill="#F7AF9F"></path>
                        <path d="M35.9914581,33.1583748 C35.2478962,32.6631166 34.7640561,31.862926 34.7640561,30.971484 C34.7640561,30.0981438 35.2735842,29.345863 35.9914581,28.8603123 L35.9914581,28.3035537 C34.3735745,28.0905578 32.539401,29.3134853 32.539401,30.971484 C32.539401,32.593222 34.1342639,33.9177936 35.996039,33.6407277 C35.9940675,33.5843666 35.9914581,33.529376 35.9914581,33.4730148 L35.9914581,33.1583748 Z" id="Fill-21" fill="#F7AF9F"></path>
                        <path d="M47.7157646,24.559623 C47.4988368,24.3306382 47.1464523,24.2878106 46.880236,24.459121 C44.02834,26.2940261 40.2560811,27.4541398 36.548941,27.1919208 C36.1728981,27.1641114 35.8488111,27.4593363 35.8488111,27.8335352 L35.8488111,33.4737001 C35.8488111,37.0985129 38.7328896,40.4093139 43.0961478,40.4093139 C46.979509,40.4093139 50.1390597,37.2978611 50.1390597,33.4737001 L50.1390597,27.3777354 C50.1396616,27.0411106 50.1541582,27.1408132 47.7157646,24.559623 Z" id="Fill-22" fill="#FFCDBF"></path>
                        <path d="M39.3166405,33.4730148 L39.3166405,27.1343034 C38.4002206,27.234006 37.4726093,27.2573043 36.548941,27.1919208 C36.1728981,27.1641114 35.8488111,27.4593363 35.8488111,27.8335352 L35.8488111,33.4737001 C35.8488111,37.0985129 38.7328896,40.4093139 43.0961478,40.4093139 C43.6733462,40.4093139 44.2347722,40.3393622 44.7719019,40.2092805 C41.4296135,39.4446653 39.3166405,36.5747601 39.3166405,33.4730148 Z" id="Fill-23" fill="#FFBEAB"></path>
                        <path d="M57.6828458,46.536971 L49.0798989,43.2559209 L47.9708475,44.4160917 C45.0552243,47.4673004 40.9332483,47.4673004 38.0169293,44.4160917 L36.9539193,43.3038307 L28.4864291,46.536971 C28.4864291,46.536971 24.5662463,48.1237616 24.5662463,52.5241535 L24.5662463,62.2895288 C24.5662463,62.7854723 24.9745299,63.1874806 25.4780853,63.1874806 L60.6986118,63.1874806 C61.1972964,63.1874806 61.6026226,62.7893553 61.6026226,62.2972949 L61.6026226,52.5241535 C61.6026226,48.1237616 57.6828458,46.536971 57.6828458,46.536971 Z" id="Fill-24" fill="#FECA57"></path>
                        <path d="M28.0341337,62.2895288 L28.0341337,51.1581248 C28.0341337,47.6155409 30.5730761,45.8973552 31.5637768,45.3619533 L28.4864291,46.536971 C28.4864291,46.536971 24.5662463,48.1237616 24.5662463,52.5241535 L24.5662463,62.2895288 C24.5662463,62.7854723 24.9745299,63.1874806 25.4780853,63.1874806 L28.9459727,63.1874806 C28.4423593,63.1874806 28.0341337,62.7854723 28.0341337,62.2895288 Z" id="Fill-25" fill="#F4B537"></path>
                        <path d="M32.5380673,63.1874806 L32.5380673,54.0364813 C32.5380673,53.3294835 31.9555921,52.7558793 31.2377183,52.7558793 C30.5191486,52.7558793 29.9373113,53.3294835 29.9373113,54.0364813 L29.9373113,63.1874806 L32.5380673,63.1874806 Z" id="Fill-26" fill="#F4B537"></path>
                        <path d="M56.2312677,63.1874806 L56.2312677,54.0364813 C56.2312677,53.3294835 55.6494884,52.7558793 54.9309187,52.7558793 C54.2129869,52.7558793 53.6305696,53.3294835 53.6305696,54.0364813 L53.6305696,63.1874806 L56.2312677,63.1874806 Z" id="Fill-27" fill="#F4B537"></path>
                    </g>
                </g>
            </g>
        </g>
    </g>
</svg>