<?xml version="1.0" encoding="UTF-8"?>
<svg width="820px" height="590px" viewBox="0 0 820 590" version="1.1" xmlns="http://www.w3.org/2000/svg" xmlns:xlink="http://www.w3.org/1999/xlink">
    <!-- Generator: Sketch 57.1 (83088) - https://sketch.com -->
    <title>Group 5@1,5x</title>
    <desc>Created with Sketch.</desc>
    <defs>
        <polygon id="path-1" points="0.218744984 0.108356326 50.0529608 0.108356326 50.0529608 50.9901547 0.218744984 50.9901547"></polygon>
        <polygon id="path-3" points="0 0.263520707 89.2262122 0.263520707 89.2262122 93.2984866 0 93.2984866"></polygon>
        <polygon id="path-5" points="0.416201533 0.567639852 18.3046648 0.567639852 18.3046648 12.7610192 0.416201533 12.7610192"></polygon>
        <polygon id="path-7" points="0.594166953 0.495127544 28.341314 0.495127544 28.341314 28.6099466 0.594166953 28.6099466"></polygon>
        <linearGradient x1="47.4849527%" y1="68.0752613%" x2="62.6397248%" y2="-40.1387145%" id="linearGradient-9">
            <stop stop-color="#010101" stop-opacity="0" offset="0%"></stop>
            <stop stop-color="#010101" offset="95%"></stop>
        </linearGradient>
        <linearGradient x1="50.6136749%" y1="18.3592448%" x2="49.4034787%" y2="81.0237883%" id="linearGradient-10">
            <stop stop-color="#FFFFFF" stop-opacity="0" offset="0%"></stop>
            <stop stop-color="#FFFFFF" stop-opacity="0.22" offset="7%"></stop>
            <stop stop-color="#FFFFFF" stop-opacity="0.45" offset="16%"></stop>
            <stop stop-color="#FFFFFF" stop-opacity="0.65" offset="25%"></stop>
            <stop stop-color="#FFFFFF" stop-opacity="0.8" offset="33%"></stop>
            <stop stop-color="#FFFFFF" stop-opacity="0.91" offset="40%"></stop>
            <stop stop-color="#FFFFFF" stop-opacity="0.98" offset="46%"></stop>
            <stop stop-color="#FFFFFF" offset="51%"></stop>
        </linearGradient>
        <linearGradient x1="48.8822012%" y1="47.0757011%" x2="55.6964746%" y2="64.8989423%" id="linearGradient-11">
            <stop stop-color="#010101" stop-opacity="0" offset="0%"></stop>
            <stop stop-color="#010101" offset="95%"></stop>
        </linearGradient>
        <linearGradient x1="49.6979322%" y1="49.4688305%" x2="52.6866055%" y2="54.7262782%" id="linearGradient-12">
            <stop stop-color="#010101" stop-opacity="0" offset="0%"></stop>
            <stop stop-color="#010101" offset="95%"></stop>
        </linearGradient>
        <linearGradient x1="48.2152371%" y1="20.1084456%" x2="52.4773575%" y2="92.5700509%" id="linearGradient-13">
            <stop stop-color="#010101" stop-opacity="0" offset="0%"></stop>
            <stop stop-color="#010101" offset="95%"></stop>
        </linearGradient>
        <linearGradient x1="112.60917%" y1="-18.5629876%" x2="-62.0087336%" y2="136.748516%" id="linearGradient-14">
            <stop stop-color="#010101" stop-opacity="0" offset="0%"></stop>
            <stop stop-color="#010101" offset="95%"></stop>
        </linearGradient>
        <linearGradient x1="-55.4463244%" y1="50.1721873%" x2="673.450439%" y2="49.0024665%" id="linearGradient-15">
            <stop stop-color="#FFFFFF" stop-opacity="0" offset="0%"></stop>
            <stop stop-color="#FFFFFF" stop-opacity="0.22" offset="7%"></stop>
            <stop stop-color="#FFFFFF" stop-opacity="0.45" offset="16%"></stop>
            <stop stop-color="#FFFFFF" stop-opacity="0.65" offset="25%"></stop>
            <stop stop-color="#FFFFFF" stop-opacity="0.8" offset="33%"></stop>
            <stop stop-color="#FFFFFF" stop-opacity="0.91" offset="40%"></stop>
            <stop stop-color="#FFFFFF" stop-opacity="0.98" offset="46%"></stop>
            <stop stop-color="#FFFFFF" offset="51%"></stop>
        </linearGradient>
        <linearGradient x1="49.7419964%" y1="-27.9018269%" x2="50.3523482%" y2="156.006643%" id="linearGradient-16">
            <stop stop-color="#FFFFFF" stop-opacity="0" offset="0%"></stop>
            <stop stop-color="#FFFFFF" stop-opacity="0.22" offset="7%"></stop>
            <stop stop-color="#FFFFFF" stop-opacity="0.45" offset="16%"></stop>
            <stop stop-color="#FFFFFF" stop-opacity="0.65" offset="25%"></stop>
            <stop stop-color="#FFFFFF" stop-opacity="0.8" offset="33%"></stop>
            <stop stop-color="#FFFFFF" stop-opacity="0.91" offset="40%"></stop>
            <stop stop-color="#FFFFFF" stop-opacity="0.98" offset="46%"></stop>
            <stop stop-color="#FFFFFF" offset="51%"></stop>
        </linearGradient>
        <linearGradient x1="50.8464958%" y1="-11.2646034%" x2="49.1629623%" y2="110.063864%" id="linearGradient-17">
            <stop stop-color="#FFFFFF" stop-opacity="0" offset="0%"></stop>
            <stop stop-color="#FFFFFF" stop-opacity="0.22" offset="7%"></stop>
            <stop stop-color="#FFFFFF" stop-opacity="0.45" offset="16%"></stop>
            <stop stop-color="#FFFFFF" stop-opacity="0.65" offset="25%"></stop>
            <stop stop-color="#FFFFFF" stop-opacity="0.8" offset="33%"></stop>
            <stop stop-color="#FFFFFF" stop-opacity="0.91" offset="40%"></stop>
            <stop stop-color="#FFFFFF" stop-opacity="0.98" offset="46%"></stop>
            <stop stop-color="#FFFFFF" offset="51%"></stop>
        </linearGradient>
        <linearGradient x1="42.8906561%" y1="513.711584%" x2="143.020153%" y2="-5910.40189%" id="linearGradient-18">
            <stop stop-color="#010101" stop-opacity="0" offset="0%"></stop>
            <stop stop-color="#010101" offset="95%"></stop>
        </linearGradient>
        <linearGradient x1="35.5568065%" y1="984.160757%" x2="135.686303%" y2="-5439.95272%" id="linearGradient-19">
            <stop stop-color="#010101" stop-opacity="0" offset="0%"></stop>
            <stop stop-color="#010101" offset="95%"></stop>
        </linearGradient>
        <linearGradient x1="43.1899969%" y1="487.470449%" x2="143.469164%" y2="-5936.64303%" id="linearGradient-20">
            <stop stop-color="#010101" stop-opacity="0" offset="0%"></stop>
            <stop stop-color="#010101" offset="95%"></stop>
        </linearGradient>
        <linearGradient x1="35.8561473%" y1="957.919622%" x2="136.135314%" y2="-5466.19385%" id="linearGradient-21">
            <stop stop-color="#010101" stop-opacity="0" offset="0%"></stop>
            <stop stop-color="#010101" offset="95%"></stop>
        </linearGradient>
        <linearGradient x1="27.474605%" y1="1500.70922%" x2="127.753772%" y2="-4923.40426%" id="linearGradient-22">
            <stop stop-color="#010101" stop-opacity="0" offset="0%"></stop>
            <stop stop-color="#010101" offset="95%"></stop>
        </linearGradient>
        <linearGradient x1="27.7739458%" y1="1475.1773%" x2="127.903443%" y2="-4948.93617%" id="linearGradient-23">
            <stop stop-color="#010101" stop-opacity="0" offset="0%"></stop>
            <stop stop-color="#010101" offset="95%"></stop>
        </linearGradient>
        <linearGradient x1="27.474605%" y1="1487.94326%" x2="127.753772%" y2="-4935.93381%" id="linearGradient-24">
            <stop stop-color="#010101" stop-opacity="0" offset="0%"></stop>
            <stop stop-color="#010101" offset="95%"></stop>
        </linearGradient>
        <linearGradient x1="43.0403265%" y1="492.907801%" x2="143.319494%" y2="-5931.20567%" id="linearGradient-25">
            <stop stop-color="#010101" stop-opacity="0" offset="0%"></stop>
            <stop stop-color="#010101" offset="95%"></stop>
        </linearGradient>
        <linearGradient x1="33.628794%" y1="37.455745%" x2="349.583669%" y2="279.672555%" id="linearGradient-26">
            <stop stop-color="#FFFFFF" stop-opacity="0" offset="0%"></stop>
            <stop stop-color="#FFFFFF" stop-opacity="0.22" offset="7%"></stop>
            <stop stop-color="#FFFFFF" stop-opacity="0.45" offset="16%"></stop>
            <stop stop-color="#FFFFFF" stop-opacity="0.65" offset="25%"></stop>
            <stop stop-color="#FFFFFF" stop-opacity="0.8" offset="33%"></stop>
            <stop stop-color="#FFFFFF" stop-opacity="0.91" offset="40%"></stop>
            <stop stop-color="#FFFFFF" stop-opacity="0.98" offset="46%"></stop>
            <stop stop-color="#FFFFFF" offset="51%"></stop>
        </linearGradient>
        <linearGradient x1="50.9011019%" y1="-18.2429592%" x2="49.1198539%" y2="116.918873%" id="linearGradient-27">
            <stop stop-color="#FFFFFF" stop-opacity="0" offset="0%"></stop>
            <stop stop-color="#FFFFFF" stop-opacity="0.22" offset="7%"></stop>
            <stop stop-color="#FFFFFF" stop-opacity="0.45" offset="16%"></stop>
            <stop stop-color="#FFFFFF" stop-opacity="0.65" offset="25%"></stop>
            <stop stop-color="#FFFFFF" stop-opacity="0.8" offset="33%"></stop>
            <stop stop-color="#FFFFFF" stop-opacity="0.91" offset="40%"></stop>
            <stop stop-color="#FFFFFF" stop-opacity="0.98" offset="46%"></stop>
            <stop stop-color="#FFFFFF" offset="51%"></stop>
        </linearGradient>
        <linearGradient x1="50.2859657%" y1="44.5773681%" x2="49.8020238%" y2="55.3194665%" id="linearGradient-28">
            <stop stop-color="#FFFFFF" stop-opacity="0" offset="0%"></stop>
            <stop stop-color="#FFFFFF" stop-opacity="0.22" offset="7%"></stop>
            <stop stop-color="#FFFFFF" stop-opacity="0.45" offset="16%"></stop>
            <stop stop-color="#FFFFFF" stop-opacity="0.65" offset="25%"></stop>
            <stop stop-color="#FFFFFF" stop-opacity="0.8" offset="33%"></stop>
            <stop stop-color="#FFFFFF" stop-opacity="0.91" offset="40%"></stop>
            <stop stop-color="#FFFFFF" stop-opacity="0.98" offset="46%"></stop>
            <stop stop-color="#FFFFFF" offset="51%"></stop>
        </linearGradient>
        <linearGradient x1="50.8828538%" y1="60.0722285%" x2="38.1324487%" y2="-36.9880198%" id="linearGradient-29">
            <stop stop-color="#010101" stop-opacity="0" offset="0%"></stop>
            <stop stop-color="#010101" offset="95%"></stop>
        </linearGradient>
        <linearGradient x1="54.9614873%" y1="27.2981246%" x2="34.5450215%" y2="119.500692%" id="linearGradient-30">
            <stop stop-color="#010101" stop-opacity="0" offset="0%"></stop>
            <stop stop-color="#010101" offset="95%"></stop>
        </linearGradient>
        <linearGradient x1="48.8701154%" y1="50.3888342%" x2="56.6836842%" y2="47.6958604%" id="linearGradient-31">
            <stop stop-color="#010101" stop-opacity="0" offset="0%"></stop>
            <stop stop-color="#010101" offset="95%"></stop>
        </linearGradient>
        <linearGradient x1="-55.9272727%" y1="50.7563025%" x2="676.290909%" y2="45.4957983%" id="linearGradient-32">
            <stop stop-color="#FFFFFF" stop-opacity="0" offset="0%"></stop>
            <stop stop-color="#FFFFFF" stop-opacity="0.22" offset="7%"></stop>
            <stop stop-color="#FFFFFF" stop-opacity="0.45" offset="16%"></stop>
            <stop stop-color="#FFFFFF" stop-opacity="0.65" offset="25%"></stop>
            <stop stop-color="#FFFFFF" stop-opacity="0.8" offset="33%"></stop>
            <stop stop-color="#FFFFFF" stop-opacity="0.91" offset="40%"></stop>
            <stop stop-color="#FFFFFF" stop-opacity="0.98" offset="46%"></stop>
            <stop stop-color="#FFFFFF" offset="51%"></stop>
        </linearGradient>
        <linearGradient x1="-55.9272727%" y1="50.7731092%" x2="676.290909%" y2="45.512605%" id="linearGradient-33">
            <stop stop-color="#FFFFFF" stop-opacity="0" offset="0%"></stop>
            <stop stop-color="#FFFFFF" stop-opacity="0.22" offset="7%"></stop>
            <stop stop-color="#FFFFFF" stop-opacity="0.45" offset="16%"></stop>
            <stop stop-color="#FFFFFF" stop-opacity="0.65" offset="25%"></stop>
            <stop stop-color="#FFFFFF" stop-opacity="0.8" offset="33%"></stop>
            <stop stop-color="#FFFFFF" stop-opacity="0.91" offset="40%"></stop>
            <stop stop-color="#FFFFFF" stop-opacity="0.98" offset="46%"></stop>
            <stop stop-color="#FFFFFF" offset="51%"></stop>
        </linearGradient>
        <linearGradient x1="-55.9272727%" y1="50.7563025%" x2="676.290909%" y2="45.512605%" id="linearGradient-34">
            <stop stop-color="#FFFFFF" stop-opacity="0" offset="0%"></stop>
            <stop stop-color="#FFFFFF" stop-opacity="0.22" offset="7%"></stop>
            <stop stop-color="#FFFFFF" stop-opacity="0.45" offset="16%"></stop>
            <stop stop-color="#FFFFFF" stop-opacity="0.65" offset="25%"></stop>
            <stop stop-color="#FFFFFF" stop-opacity="0.8" offset="33%"></stop>
            <stop stop-color="#FFFFFF" stop-opacity="0.91" offset="40%"></stop>
            <stop stop-color="#FFFFFF" stop-opacity="0.98" offset="46%"></stop>
            <stop stop-color="#FFFFFF" offset="51%"></stop>
        </linearGradient>
    </defs>
    <g id="Page-Join-Us" stroke="none" stroke-width="1" fill="none" fill-rule="evenodd">
        <g id="EPIPAY-Homepage-join-us" transform="translate(-620.000000, -197.000000)">
            <g id="Group-5" transform="translate(620.000000, 197.000000)">
                <g id="Group-4" transform="translate(0.000000, 169.000000)">
                    <g id="Group-27" transform="translate(117.000000, 0.000000)">
                        <g id="Group-3" transform="translate(0.284421, 0.186893)">
                            <mask id="mask-2" fill="white">
                                <use xlink:href="#path-1"></use>
                            </mask>
                            <g id="Clip-2"></g>
                            <path d="M34.5739127,0.961714064 L1.11291121,34.5019829 C-0.050655393,35.6679206 -0.0827949742,37.5926478 1.04095268,38.8008061 L12.3785455,50.9901547 L50.0529608,13.2260558 L38.7156524,1.03729777 C37.5916203,-0.171451004 35.7374793,-0.204814124 34.5739127,0.961714064" id="Fill-1" fill="#F8AE94" mask="url(#mask-2)"></path>
                        </g>
                        <polygon id="Fill-4" fill="#F59370" points="10.8519723 48.7044267 10.5988375 48.9574549 10.3548042 48.695274 10.607939 48.44136"></polygon>
                        <path d="M11.562769,47.9916664 L11.0610502,48.4944752 L10.8167325,48.231999 L11.3184513,47.7291902 L11.562769,47.9916664 Z M12.2732528,47.2795262 L11.771534,47.7817445 L11.5275007,47.5192683 L12.0292195,47.01705 L12.2732528,47.2795262 Z M12.9837366,46.5667955 L12.4823023,47.0696043 L12.238269,46.8071281 L12.7399878,46.3043193 L12.9837366,46.5667955 Z M13.6947893,45.8546553 L13.1930705,46.3568736 L12.9493217,46.0943974 L13.4510405,45.5921791 L13.6947893,45.8546553 Z M14.4052732,45.1419246 L13.9038388,45.6447334 L13.6598055,45.3822571 L14.1618087,44.8794484 L14.4052732,45.1419246 Z M15.1163258,44.4297844 L14.6148915,44.9320027 L14.3708582,44.6695264 L14.872577,44.1673081 L15.1163258,44.4297844 Z M15.8268097,43.7167584 L15.3256597,44.2198624 L15.081342,43.9567957 L15.5830608,43.4551679 L15.8268097,43.7167584 Z M16.5378624,43.0046182 L16.036428,43.5071317 L15.7921103,43.2446555 L16.2941135,42.7424372 L16.5378624,43.0046182 Z M17.248915,42.292478 L16.7469118,42.7946963 L16.5028786,42.5325153 L17.0045973,42.030297 L17.248915,42.292478 Z M17.9593989,41.5797473 L17.4579645,42.082556 L17.2136468,41.8197846 L17.71565,41.3175663 L17.9593989,41.5797473 Z M18.6701671,40.867607 L18.1690172,41.3698253 L17.9244151,41.1076444 L18.4261339,40.6045403 L18.6701671,40.867607 Z M19.3812198,40.1548763 L18.879501,40.6570946 L18.6351833,40.3949136 L19.1366177,39.8924001 L19.3812198,40.1548763 Z M20.0917037,39.4427361 L19.5905537,39.9449544 L19.3459516,39.6824782 L19.8476704,39.1802599 L20.0917037,39.4427361 Z M20.8024719,38.7305959 L20.3010376,39.2322237 L20.0567199,38.970338 L20.5581542,38.4675292 L20.8024719,38.7305959 Z M21.5132402,38.0172747 L21.0120903,38.5200835 L20.7674881,38.2576073 L21.2692069,37.755389 L21.5132402,38.0172747 Z M22.2240084,37.3051345 L21.7228585,37.8079433 L21.477972,37.545467 L21.9799752,37.0426583 L22.2240084,37.3051345 Z M22.9350611,36.5924038 L22.4336268,37.0952125 L22.1890246,36.8327363 L22.6907434,36.330518 L22.9350611,36.5924038 Z M23.645545,35.8802636 L23.1446795,36.3830723 L22.8995085,36.1205961 L23.4017961,35.6183778 L23.645545,35.8802636 Z M24.3565976,35.1678281 L23.8551633,35.6703416 L23.6105612,35.4078654 L24.1122799,34.9056471 L24.3565976,35.1678281 Z M25.0673659,34.4556879 L24.5656471,34.9579062 L24.3213294,34.6957252 L24.8230482,34.1935069 L25.0673659,34.4556879 Z M25.7778497,33.7423667 L25.2766998,34.2457659 L25.0320977,33.9829945 L25.5341009,33.4807762 L25.7778497,33.7423667 Z M26.4889024,33.0308169 L25.9871837,33.5330352 L25.742866,33.2708543 L26.2445847,32.7680455 L26.4889024,33.0308169 Z M27.1999551,32.3174957 L26.6976675,32.8203045 L26.4533498,32.5581235 L26.955353,32.05561 L27.1999551,32.3174957 Z M27.9101545,31.605946 L27.4087202,32.1081643 L27.1644025,31.8456881 L27.6661212,31.3434698 L27.9101545,31.605946 Z M28.6212072,30.8938058 L28.119204,31.3954336 L27.8754552,31.1335479 L28.3768895,30.6295581 L28.6212072,30.8938058 Z M29.3319755,30.1810751 L28.8302567,30.6832934 L28.585939,30.4208172 L29.0879422,29.9174179 L29.3319755,30.1810751 Z M30.0427437,29.4683444 L29.5407405,29.9711532 L29.2969917,29.7086769 L29.798426,29.2052777 L30.0427437,29.4683444 Z M30.753512,28.7556137 L30.2517932,29.2584224 L30.0077599,28.9959462 L30.5091943,28.4925469 L30.753512,28.7556137 Z M31.4642802,28.042883 L30.9622771,28.5462822 L30.7185282,28.283806 L31.220247,27.7804067 L31.4642802,28.042883 Z M32.1753329,27.331038 L31.6733297,27.8335515 L31.429012,27.5710753 L31.9304464,27.067676 L32.1753329,27.331038 Z M32.8855323,26.6177168 L32.384098,27.1214113 L32.1400647,26.8589351 L32.6414991,26.3555358 L32.8855323,26.6177168 Z M33.596585,25.9055766 L33.0948663,26.4083853 L32.850833,26.1462044 L33.3525517,25.6433956 L33.596585,25.9055766 Z M34.3076377,25.1934363 L33.8056345,25.6962451 L33.5618857,25.4340642 L34.0630356,24.9306649 L34.3076377,25.1934363 Z M35.0186904,24.4812961 L34.5164028,24.9835144 L34.2720851,24.7213334 L34.7740883,24.2182294 L35.0186904,24.4812961 Z M35.7291742,23.7679749 L35.227171,24.2713742 L34.9831378,24.008898 L35.4845721,23.5054987 L35.7291742,23.7679749 Z M36.4402269,23.0558347 L35.9379393,23.5586435 L35.6941904,23.2961673 L36.1956248,22.792768 L36.4402269,23.0558347 Z M37.1507108,22.343104 L36.6487076,22.8465033 L36.4046743,22.5840271 L36.9061086,22.0806278 L37.1507108,22.343104 Z M37.8611946,21.6309638 L37.3594758,22.1343631 L37.115727,21.8712963 L37.6168769,21.3684876 L37.8611946,21.6309638 Z M38.5716784,20.9182331 L38.0702441,21.4216323 L37.8259264,21.1591561 L38.3279296,20.6557568 L38.5716784,20.9182331 Z M39.2827311,20.2060929 L38.7810123,20.7094921 L38.5369791,20.4464254 L39.0389823,19.9436166 L39.2827311,20.2060929 Z M39.9937838,19.4933621 L39.4914962,19.9967614 L39.2474629,19.7342852 L39.7494661,19.2308859 L39.9937838,19.4933621 Z M40.7042676,18.7809267 L40.2025489,19.2846212 L39.9582312,19.020964 L40.4602344,18.5187457 L40.7042676,18.7809267 Z M41.4150359,18.068196 L40.9130327,18.5715952 L40.6692838,18.3094143 L41.1710026,17.8066055 L41.4150359,18.068196 Z M42.1258042,17.3560557 L41.6240854,17.859455 L41.3800521,17.5960931 L41.8814865,17.0938748 L42.1258042,17.3560557 Z M42.836288,16.6439155 L42.3345692,17.1467243 L42.0908204,16.8839528 L42.5925391,16.3817346 L42.836288,16.6439155 Z M43.5473407,15.9311848 L43.0453375,16.4345841 L42.8015886,16.1718126 L43.3035918,15.6687086 L43.5473407,15.9311848 Z M44.2581089,15.2190446 L43.7563902,15.7218534 L43.5123569,15.4593772 L44.0143601,14.9559779 L44.2581089,15.2190446 Z M44.9688772,14.5063139 L44.4671584,15.0097132 L44.2231251,14.7466465 L44.7245595,14.2438377 L44.9688772,14.5063139 Z M45.6796455,13.7941737 L45.1779267,14.2969825 L44.9333246,14.0339157 L45.4356122,13.5316975 L45.6796455,13.7941737 Z M46.3904137,13.0820335 L45.8886949,13.5848422 L45.6443772,13.3217755 L46.1466649,12.8189667 L46.3904137,13.0820335 Z M47.101182,12.3693028 L46.5994632,12.871521 L46.3554299,12.6096353 L46.8571487,12.1068265 L47.101182,12.3693028 Z M47.8119502,11.656572 L47.3105159,12.1593808 L47.0659138,11.8963141 L47.5682014,11.3940958 L47.8119502,11.656572 Z" id="Fill-6" fill="#F59370"></path>
                        <polygon id="Fill-8" fill="#F59370" points="48.2741914 11.1939761 48.0207722 11.4464139 47.7770233 11.1848234 48.0298737 10.9314999"></polygon>
                        <path d="M76.2885578,119.577406 C77.4123054,120.784974 79.2667308,120.818928 80.430013,119.652399 L113.891015,86.1121306 C115.054866,84.9456024 115.087005,83.0214657 113.963542,81.8138979 L50.3374103,13.4130074 L12.662995,51.1771062 L76.2885578,119.577406 Z" id="Fill-10" fill="#DB8B6E"></path>
                        <polygon id="Fill-12" fill="#F8AE94" points="65.153359 93.9490093 59.9803085 99.13476 77.0330584 117.467351 82.2063933 112.282191"></polygon>
                        <g id="Group-16" transform="translate(0.000000, 29.416528)">
                            <mask id="mask-4" fill="white">
                                <use xlink:href="#path-3"></use>
                            </mask>
                            <g id="Clip-15"></g>
                            <path d="M88.4044973,51.3114445 C89.5276761,52.5190122 89.4955365,54.4437395 88.3319699,55.6105629 L51.5833452,92.4455136 C50.420063,93.6120418 48.5662065,93.5774977 47.4424588,92.3699299 L0.821863131,42.2511431 C-0.301884526,41.0423944 -0.269176103,39.1179624 0.894106084,37.9520247 L37.6421619,1.11677876 C38.806013,-0.0497494304 40.6604383,-0.0157958132 41.7836172,1.19177196 L88.4044973,51.3114445 Z" id="Fill-14" fill="#6466AE" mask="url(#mask-4)"></path>
                        </g>
                        <path d="M44.4017131,53.8966433 C50.0685186,59.9891033 49.904692,69.6954091 44.0362321,75.577947 C38.1680565,81.4595993 28.8171449,81.289536 23.1506239,75.198257 C17.4841028,69.1066829 17.6473605,59.3997866 23.5158205,53.5172486 C29.3842805,47.6353011 38.7351921,47.8047739 44.4017131,53.8966433" id="Fill-17" fill="#9DA2D0"></path>
                        <polygon id="Fill-19" fill="#454896" points="66.630443 70.8457871 38.6906233 98.8516164 35.3535109 95.2649334 63.2936149 67.2585137"></polygon>
                        <polygon id="Fill-21" fill="#454896" points="73.6426454 78.3844349 45.7028258 106.390264 42.3657133 102.802991 70.3058174 74.796571"></polygon>
                        <polygon id="Fill-23" fill="#F8AE94" points="92.744706 77.7806806 91.3536025 79.1739599 42.9178315 27.103283 44.3086506 25.7097085"></polygon>
                        <polygon id="Fill-25" fill="#F8AE94" points="96.5374325 73.9782002 95.146329 75.3726605 46.7105581 23.3019837 48.101946 21.9078186"></polygon>
                    </g>
                    <ellipse id="Oval" fill="#FAFAFA" opacity="0.555571057" cx="320.5" cy="342" rx="186.5" ry="6"></ellipse>
                    <g id="Group-55" transform="translate(0.000000, 27.000000)">
                        <g id="Group-3" transform="translate(28.290179, 347.242645)">
                            <mask id="mask-6" fill="white">
                                <use xlink:href="#path-5"></use>
                            </mask>
                            <g id="Clip-2"></g>
                            <path d="M18.0476293,9.55723771 C18.5406007,10.2571796 18.1728284,12.1005088 18.1728284,12.1005088 C18.1728284,12.1005088 9.47389937,13.2636757 6.67919085,12.503119 C5.95749033,12.3078754 4.72837234,11.5849637 3.5744942,10.8205786 C3.37525911,10.6910543 3.03216545,9.91327014 2.84737641,9.7875741 C2.49705972,9.54639084 2.31467836,9.95601956 2.01492285,9.73014952 C1.2474765,9.16738857 0.698526651,8.72777146 0.691303626,8.67098492 C-0.0592889919,4.04001106 0.963972797,2.1660554 0.963972797,2.1660554 C0.963972797,2.1660554 8.37599966,-0.721125194 9.75981075,1.26512744 C13.0065602,5.94905953 16.9641757,8.0246393 18.0476293,9.55723771" id="Fill-1" fill="#163F59" mask="url(#mask-6)"></path>
                        </g>
                        <path d="M92.150322,350.780765 L93.4402337,358.27914 L96.8356571,358.27914 C96.8356571,358.27914 97.2124582,357.211043 97.7981251,357.211043 C98.2826697,357.211043 98.9158881,358.27914 99.583416,358.27914 L103.281604,358.27914 L117.078183,358.27914 C117.078183,358.27914 117.388171,356.696136 117.010166,356.152516 C116.812135,355.877516 115.660664,355.393874 114.898635,355.150138 C111.3425,354.039292 101.176093,350.571485 99.4046461,346.800603 C97.2636213,342.207275 92.150322,350.780765 92.150322,350.780765" id="Fill-4" fill="#163F59"></path>
                        <polygon id="Fill-6" fill="#E9D6B8" points="44.8159772 185.665172 37.5682741 181.383212 36.709938 180.429326 37.7175499 178.719988 39.3132364 178.927992 39.0267231 173.922483 46.6217333 172.493887 50.5131376 170.559316 46.9172753 184.138955"></polygon>
                        <path d="M78.4243485,63.6042375 C78.4243485,63.6042375 70.2984461,73.0850367 95.3099738,98.1253466 C120.322103,123.175227 124.881036,115.844022 124.881036,115.844022 L132.438727,110.513744 L138.041386,82.6481444 L125.968703,79.6761031 L124.655316,81.3171701 C124.655316,81.3171701 122.06225,81.5915321 120.751873,79.6282493 C119.452933,77.6726231 111.168124,71.0828328 99.2236492,54.8061528 C93.7142873,47.308416 79.9742892,61.7634604 78.4243485,63.6042375" id="Fill-8" fill="#D1DBEA"></path>
                        <path d="M136.04428,84.2381036 C136.04428,84.2381036 161.268285,83.7538229 163.280499,55.9143835 C163.880612,47.6395006 165.877778,55.6412977 167.252561,63.5448349 C168.629751,71.4490102 164.019054,93.7189028 150.542094,102.67012 C137.061523,111.622613 131.306578,113.815594 126.102991,110.171047 C120.890375,106.523309 136.04428,84.2381036 136.04428,84.2381036" id="Fill-10" fill="#E9D6B8"></path>
                        <path d="M98.8390231,350.813816 C98.8390231,350.813816 94.916319,356.828723 92.0373418,351.197923 C85.4029939,338.223157 75.5321292,306.174495 75.1944528,291.586736 C74.7171312,270.675892 78.0644011,256.12514 78.0644011,256.12514 L99.091829,248.854549 L98.8390231,350.813816 Z" id="Fill-12" fill="#163F59"></path>
                        <path d="M98.1351394,153.001175 L99.0921901,248.854932 L79.977058,260.041241 C79.977058,260.041241 68.5068952,237.175409 67.0749307,207.979473 C66.4663909,195.581505 66.1630238,167.784815 72.6998609,158.33209 C81.5709387,145.521941 98.1351394,153.001175 98.1351394,153.001175" id="Fill-14" fill="#163F59"></path>
                        <path d="M91.1610686,153.001175 L88.0419259,186.1811 L79.5428338,222.171003 L70.5014131,255.803307 L38.2156978,349.16739 L28.8167374,349.976438 C28.8167374,349.976438 30.0013134,279.895473 41.4684665,259.456149 C47.5418262,248.640547 47.5346032,224.640898 50.3353309,198.79473 C50.8373311,194.13951 48.3562222,183.618688 48.7522847,179.373097 C50.3353309,162.624259 58.4714659,150.075711 58.4714659,150.075711 L91.1610686,153.001175 Z" id="Fill-16" fill="#194866"></path>
                        <path d="M98.4516884,154.455484 L57.0408857,153.485009 L39.3613297,90.7199357 C39.3613297,90.7199357 27.8839439,52.7641983 49.8702283,52.2773654 C71.8516973,51.7975511 97.1852515,51.7975511 97.1852515,51.7975511 C97.1852515,51.7975511 115.340323,87.1908759 98.4516884,154.455484" id="Fill-18" fill="#D1DBEA"></path>
                        <path d="M24.1423571,136.122111 L50.3691587,169.955401 C50.3691587,169.955401 49.4199329,174.888173 47.3180328,172.268974 C47.0658289,171.958881 48.331062,170.962245 46.738987,170.036433 C40.2900301,166.308302 25.1668227,160.570309 19.5551347,154.832955 C12.1942709,147.288002 6.95456865,138.410161 6.95456865,138.410161 L24.1423571,136.122111 Z" id="Fill-20" fill="#E9D6B8"></path>
                        <path d="M89.7462587,134.804153 C89.3116734,137.873816 85.8662907,140.069349 85.8662907,140.069349 L81.1291906,135.685301 C81.1291906,135.685301 81.5029821,91.5679054 75.9490782,60.6096729 C75.9490782,60.6096729 95.2146901,95.8294478 89.7462587,134.804153 Z" id="Fill-22" fill="#558DC9"></path>
                        <polygon id="Fill-24" fill="#B0BFDE" points="75.2592794 59.6787565 74.2125428 67.4559597 61.6240151 54.8174463 61.6240151 52.8688387"></polygon>
                        <polygon id="Fill-26" fill="#B0BFDE" points="79.2258634 54.6578697 81.4349051 64.7805482 75.8478957 59.6786927"></polygon>
                        <path d="M116.566552,88.9991761 L119.846407,82.7079936 L121.304254,80.2680868 C122.668804,81.5256852 124.655136,81.3170425 124.655136,81.3170425 L121.387921,85.5211603 L118.384347,91.2202315 L116.69777,99.9015528 L116.566552,88.9991761 Z" id="Fill-28" fill="#B0BFDE"></path>
                        <path d="M41.3502497,89.6079405 L26.947539,133.579222 L23.8289982,134.894245 L25.5625241,137.813967 L7.80291287,141.090996 L0.00024076748,126.716346 L20.743563,67.0477347 C20.743563,67.0477347 28.7653335,54.5017387 46.6314843,52.4197784 C59.5763479,50.912064 42.3873556,85.9506324 41.3502497,89.6079405" id="Fill-30" fill="#D1DBEA"></path>
                        <path d="M6.72108439,130.892454 C6.72108439,130.892454 18.8310867,133.29663 25.1891539,134.319425 L23.8288177,134.893671 L25.5623435,137.81403 L19.4149478,138.894889 L10.4608053,139.106722 L9.05893662,135.593613 L11.6784868,134.901328 L6.72108439,130.892454 Z" id="Fill-32" fill="#B0BFDE"></path>
                        <path d="M60.0652864,43.4645418 C60.542608,45.8763744 61.3744596,49.6159911 62.297201,51.7981253 C63.7285637,55.198937 76.1539714,59.5778807 78.0644613,60.0627994 C79.9773589,60.5515465 77.5871398,49.8437753 77.5871398,47.4185436 C77.5871398,45.557987 76.4579403,46.1411655 77.8182766,43.4645418 L60.0652864,43.4645418 Z" id="Fill-34" fill="#E9D6B8"></path>
                        <path d="M81.2970055,38.0423209 C81.6172262,40.1332139 80.2737437,42.0913923 78.3132945,42.4270071 L62.2811899,45.1514847 C60.3165273,45.4896517 58.4686369,44.0667981 58.1484162,41.9835617 L54.3430861,16.8181938 C54.0234673,14.7362335 55.3639403,12.7710366 57.3334182,12.4328696 L73.3601055,9.71860079 C75.3235643,9.37915768 77.1720567,10.7949928 77.4922774,12.8846097 L81.2970055,38.0423209 Z" id="Fill-36" fill="#E9D6B8"></path>
                        <path d="M78.3000523,18.0646264 C78.3000523,18.0646264 80.0841393,15.2667729 80.249667,13.7003578 C80.3363433,12.9098127 79.2101534,10.1687457 77.2629464,9.36862984 C75.3133317,8.57489445 74.141396,10.8667735 74.141396,10.8667735 C74.141396,10.8667735 77.2394715,12.0605668 77.4778314,12.6648011 C77.724618,13.2715876 78.3000523,18.0646264 78.3000523,18.0646264" id="Fill-38" fill="#163F59"></path>
                        <g id="Group-42" transform="translate(49.959252, 0.142923)">
                            <mask id="mask-8" fill="white">
                                <use xlink:href="#path-7"></use>
                            </mask>
                            <g id="Clip-41"></g>
                            <path d="M4.46093987,28.2706981 C4.46093987,28.2706981 0.578564254,19.0144928 0.594166953,16.1100849 C0.61287362,13.1973822 0.61287362,11.1836934 3.8247118,10.3121158 C8.63644988,9.0149582 8.86517899,10.1028351 11.0013885,8.12423906 C13.1388018,6.15138549 16.8375922,1.6352608 18.24548,1.00741866 C20.599584,-0.0434512703 24.5632187,0.174762158 25.4444276,5.0245875 C26.1017229,8.60788168 28.3781794,9.12342686 28.3408604,9.27017858 C28.2156613,9.73786993 27.3874212,10.3038211 25.9566605,11.3904219 C21.8575941,14.508577 19.2615188,15.436303 15.7089946,15.0694237 C12.1498493,14.708925 5.48841509,13.7410016 5.15134061,16.5439595 C4.81185847,19.3437271 6.34434348,27.4724963 6.15172949,28.1507445 C5.94346562,28.8347351 5.13027346,28.6503384 4.46093987,28.2706981" id="Fill-40" fill="#194866" mask="url(#mask-8)"></path>
                        </g>
                        <path d="M60.6174867,35.1119443 C60.7174052,35.8055057 60.2701796,36.460146 59.6122824,36.5718049 L56.1548614,37.1594498 C55.4975662,37.2736609 54.8812015,36.7970369 54.7746618,36.1060277 L53.7568173,29.3969218 C53.6562969,28.7001702 54.0962995,28.0417016 54.7535947,27.9300427 L58.2194426,27.3481402 C58.8791455,27.2364813 59.4882872,27.7073629 59.593623,28.3996482 L60.6174867,35.1119443 Z" id="Fill-43" fill="#E9D6B8"></path>
                        <path d="M81.2564362,31.5932847 C81.3677911,32.2970549 80.9163521,32.9478668 80.2632703,33.0576116 L76.8046455,33.6465326 C76.1485541,33.7594677 75.5321893,33.2873099 75.4244459,32.5886441 L74.4114167,25.8814525 C74.306081,25.1904433 74.750297,24.5287844 75.4039807,24.4215919 L78.8692266,23.8256523 C79.5217065,23.722288 80.1392751,24.1950838 80.2428051,24.8899213 L81.2564362,31.5932847 Z" id="Fill-45" fill="#E9D6B8"></path>
                        <path d="M56.2933027,30.3645261 C56.2933027,30.3645261 57.7920803,40.267077 58.2910709,43.572181 C58.7413061,46.5601736 60.859458,52.9215417 76.7741884,50.208549 C86.1936141,48.6127835 84.7393785,41.330708 84.3716062,38.9182373 C84.0953255,37.0838408 81.3012189,31.9200944 80.1485446,31.0344796 C80.1112257,31.0076815 80.7649094,35.1256624 80.7649094,35.1256624 C80.7649094,35.1256624 78.2055511,31.4760109 73.7272759,32.2378437 C66.5036496,33.4622635 65.5399778,38.2227617 62.3413818,38.689177 C59.8795343,39.0439333 57.4008331,35.1218341 56.2933027,30.3645261" id="Fill-47" fill="#194866"></path>
                        <path d="M71.742449,39.242431 L76.6835996,38.3989276 C77.3402929,38.2904589 77.7881204,37.6351806 77.6797751,36.938429 L77.569022,36.2027562 L70.2508945,37.4539741 L70.3628514,38.1839044 C70.4699929,38.8787419 71.0857557,39.3521757 71.742449,39.242431" id="Fill-49" fill="#E9D6B8"></path>
                        <path d="M162.8981,60.5959548 C162.8981,60.5959548 160.5139,52.0409675 161.746028,49.9047729 C162.978757,47.7711305 167.953014,40.3046582 167.953014,40.3046582 L169.374144,38.5270482 C169.374144,38.5270482 171.958783,39.2346467 168.566369,44.208254 C165.173955,49.1907939 167.993342,47.7902721 167.993342,47.7902721 L172.570332,44.6159685 L178.439641,41.216433 L180.880421,39.3297163 C180.880421,39.3297163 182.190197,38.1461318 182.713264,38.1650436 C184.228293,38.2265262 183.62818,39.5243219 183.62818,39.5243219 L174.698115,47.7711305 L184.742934,42.7171289 C184.742934,42.7171289 186.124337,42.3145187 186.561932,43.0099943 C186.969431,43.6678248 186.561932,43.9045417 186.561932,43.9045417 L176.368439,52.6751902 L181.809182,50.7297728 C181.809182,50.7297728 183.174936,50.3782067 183.62818,51.0302948 C184.121152,51.7474641 184.26802,51.9261184 184.26802,51.9261184 L164.215098,62.7079035 L162.8981,60.5959548 Z" id="Fill-51" fill="#E9D6B8"></path>
                        <path d="M176.112443,49.4798948 L183.365563,46.3942804 C183.365563,46.3942804 184.914902,45.5035612 185.868341,45.601183 C186.95962,45.7166702 186.904845,46.7975286 186.904845,46.7975286 L176.368258,52.675254 L176.112443,49.4798948 Z" id="Fill-53" fill="#E9D6B8"></path>
                    </g>
                </g>
                <g id="designer_1" transform="translate(27.000000, 0.000000)" fill-rule="nonzero">
                    <g id="Group">
                        <path d="M127.417353,512.418583 C88.4272519,516.34752 48.240704,520.667573 13.9308229,539.885585 C9.33857726,542.463394 4.67595239,545.503431 2.14229964,550.143488 C-2.94260069,559.476935 2.82849726,571.779308 11.784256,577.397154 C20.7400147,583.015 31.7895559,583.655008 42.3288476,584.117236 C229.9951,592.312891 417.942869,589.095074 605.767475,585.895035 C660.311388,584.97058 715.717447,583.9039 767.99163,568.028151 C777.387259,565.183672 787.715413,560.916953 791.25197,551.619062 C795.879405,539.458913 785.322519,525.983193 773.006151,522.19648 C760.689784,518.409768 747.54646,521.236469 734.807817,522.889822 C690.574463,528.632115 645.954022,519.849785 601.914211,512.827477 C515.699638,499.102865 426.24762,487.938285 338.924574,485.858259 C309.154154,485.164918 283.729652,495.51171 254.592645,499.600649 C212.523453,505.538499 169.715278,508.151865 127.417353,512.418583 Z" id="Path" fill-opacity="0.8" fill="#505F98" opacity="0.24"></path>
                        <path d="M488.629244,124.394446 L489.4,114.264645 L482.655888,113.773928 C482.160615,110.162191 480.970899,106.680599 479.152453,103.521447 L484.757949,98.7369558 L478.171492,91.0081626 L472.618548,95.7225512 C469.429846,93.004211 465.687998,91.0127807 461.652797,89.8865237 L462.195829,82.7536012 L452.08842,82 L451.562905,89.0102433 C447.456175,89.2947523 443.464596,90.492204 439.87895,92.5153649 L436.077723,87.8886044 L428.230029,94.3730794 L431.961187,98.8771607 C429.220589,101.973139 427.182753,105.626269 425.987831,109.585307 L418.753238,109.042013 L418,119.154289 L424.814181,119.680058 C425.057929,124.409764 426.472485,129.004767 428.930716,133.052097 L424.253631,137.012884 L430.857605,144.741677 L435.587242,140.710787 C438.99303,143.456873 442.984893,145.381806 447.25368,146.336508 L446.763199,152.75088 L456.870608,153.504481 L457.378606,146.932378 C461.280338,146.459089 465.046103,145.201243 468.44946,143.234475 L473.2842,149.070503 L481.131894,142.586028 L476.209568,136.644846 C479.275046,133.012917 481.377464,128.667434 482.323062,124.008883 L488.629244,124.394446 Z M452.508832,135.050016 C443.097952,134.326843 436.053226,126.110537 436.770861,116.694728 C437.488496,107.278919 445.696961,100.226271 455.108633,100.939059 C464.520305,101.651847 471.574085,109.860373 470.86683,119.276969 C470.535806,123.809189 468.412145,128.02228 464.966299,130.982924 C461.520453,133.943568 457.036885,135.407355 452.508832,135.050016 Z" id="Shape" fill-opacity="0.75" fill="#FED049"></path>
                        <rect id="Rectangle" fill="#505F98" x="318.602696" y="415.161793" width="82.32" height="68.9807939"></rect>
                        <rect id="Rectangle" fill="url(#linearGradient-9)" x="318.602696" y="415.161793" width="82.32" height="68.9807939"></rect>
                        <rect id="Rectangle" fill="#3E78BD" x="143.882696" y="127.461409" width="435.12" height="298.636364" rx="9.37"></rect>
                        <path d="M564.722696,152.225373 L564.722696,399.65135 C564.736626,403.757044 563.121656,407.699656 560.233957,410.60945 C557.346259,413.519244 553.423105,415.15713 549.32994,415.161793 L170.195401,415.161793 C166.103678,415.152444 162.183245,413.513058 159.296558,410.604283 C156.409871,407.695509 154.793394,403.755619 154.802696,399.65135 L154.802696,152.225373 C154.793394,148.121105 156.409871,144.181215 159.296558,141.27244 C162.183245,138.363666 166.103678,136.724279 170.195401,136.71493 L549.32994,136.71493 C553.423105,136.719593 557.346259,138.357479 560.233957,141.267274 C563.121656,144.177068 564.736626,148.11968 564.722696,152.225373 L564.722696,152.225373 Z" id="Path" fill="url(#linearGradient-10)" opacity="0.65"></path>
                        <rect id="Rectangle" fill="#505F98" x="280.802696" y="475.730295" width="173.04" height="17.6658131"></rect>
                        <rect id="Rectangle" fill="url(#linearGradient-11)" x="318.602696" y="465.635545" width="82.32" height="10.0947503"></rect>
                        <path d="M440.96,67.0581956 L440.96,49.8353099 L429.477911,49.8353099 C428.153951,43.8049331 425.69242,38.0800248 422.224204,32.964991 L431.070189,24.1508223 L418.915805,11.9167561 L410.06982,20.5898981 C404.272393,16.3981054 397.63351,13.5055439 390.608653,12.1106678 L390.608653,0 L373.34129,0 L373.34129,11.8462428 C366.382676,12.80989 359.731125,15.3223629 353.880123,19.1972595 L346.803335,11.8462428 L334.312804,23.8335122 L341.230364,30.9729889 C336.938666,36.5437431 333.919674,42.9811492 332.384379,49.8353099 L320,49.8353099 L320,67.0581956 L331.959772,67.0581956 C332.984337,75.0300826 335.974887,82.6249242 340.664221,89.1641307 L333.215902,96.4446341 L345.441053,108.78447 L352.942448,101.36294 C359.080741,105.571805 366.108992,108.316295 373.482826,109.383834 L373.482826,120.295775 L390.750189,120.295775 L390.750189,109.119409 C397.324569,107.820478 403.566037,105.205731 409.096762,101.433454 L418.066591,110.705959 L430.557122,98.7186896 L421.445757,89.3227858 C426.212193,82.7856627 429.253959,75.1601065 430.291742,67.1463373 L440.96,67.0581956 Z M380.966529,89.7636285 C364.873701,89.7440107 351.843735,76.7293273 351.863259,60.6943801 C351.882827,44.6594329 364.944483,31.6763258 381.037311,31.6957717 C397.13014,31.7152613 410.160118,44.7299319 410.14061,60.7648791 C410.145327,68.4694649 407.070896,75.8588172 401.596629,81.3001635 C396.122362,86.7415097 388.698892,89.7869281 380.966529,89.7636285 Z" id="Shape" fill-opacity="0.75" fill="#FED049"></path>
                        <path d="M642.002696,107.243588 L642.002696,514.27447 C641.974017,522.709343 635.219691,529.539961 626.879028,529.568964 L625.13667,529.568964 C616.811329,529.530164 610.082696,522.693937 610.082696,514.27447 L610.082696,107.243588 L626.042696,107 L642.002696,107.243588 Z" id="Path" fill="#505F98"></path>
                        <rect id="Rectangle" fill="url(#linearGradient-12)" x="624.362696" y="107.271909" width="17.64" height="389.489117"></rect>
                        <rect id="Rectangle" fill="url(#linearGradient-13)" x="608.402696" y="490.872421" width="33.6" height="14.3008963"></rect>
                        <path d="M642.002696,501.8084 L642.002696,514.746877 C641.974017,523.385154 635.219691,530.380491 626.879028,530.410193 L625.13667,530.410193 C616.811329,530.370458 610.082696,523.369377 610.082696,514.746877 L610.082696,501.8084 L642.002696,501.8084 Z" id="Path" fill="url(#linearGradient-14)"></path>
                        <path d="M564.722696,152.288655 L564.722696,157.74566 L154.802696,157.74566 L154.802696,152.288655 C154.793393,148.167641 156.410009,144.211677 159.296944,141.291035 C162.183879,138.370392 166.104648,136.724318 170.196723,136.71493 L549.328619,136.71493 C553.422135,136.719612 557.345626,138.364181 560.233572,141.285847 C563.121519,144.207513 564.736627,148.16621 564.722696,152.288655 L564.722696,152.288655 Z" id="Path" fill="url(#linearGradient-15)"></path>
                        <rect id="Rectangle" fill="url(#linearGradient-16)" x="163.202696" y="184.664994" width="39.48" height="190.959027"></rect>
                        <rect id="Rectangle" fill="url(#linearGradient-17)" x="262.322696" y="198.124661" width="185.64" height="175.816901"></rect>
                        <rect id="Rectangle" fill="url(#linearGradient-18)" x="305.162696" y="280.565122" width="5.88" height="7.57106274"></rect>
                        <rect id="Rectangle" fill="url(#linearGradient-19)" x="305.162696" y="245.233496" width="5.88" height="7.57106274"></rect>
                        <rect id="Rectangle" fill="url(#linearGradient-20)" x="225.362696" y="280.565122" width="5.88" height="7.57106274"></rect>
                        <rect id="Rectangle" fill="url(#linearGradient-21)" x="225.362696" y="245.233496" width="5.88" height="7.57106274"></rect>
                        <rect id="Rectangle" fill="url(#linearGradient-22)" x="305.162696" y="207.378183" width="5.88" height="7.57106274"></rect>
                        <rect id="Rectangle" fill="url(#linearGradient-23)" x="226.202696" y="207.378183" width="5.88" height="7.57106274"></rect>
                        <rect id="Rectangle" fill="url(#linearGradient-24)" x="266.522696" y="207.378183" width="5.88" height="7.57106274"></rect>
                        <rect id="Rectangle" fill="url(#linearGradient-25)" x="266.522696" y="280.565122" width="5.88" height="7.57106274"></rect>
                        <path d="M301.802696,278.882664 L236.282696,278.882664 L236.282696,217.472933 L301.802696,217.472933 L301.802696,278.882664 Z M242.882212,272.390234 L295.203179,272.390234 L295.203179,223.913423 L242.882212,223.913423 L242.882212,272.390234 Z" id="Shape" fill="#505F98"></path>
                        <path d="M301.802696,278.882664 L236.282696,278.882664 L236.282696,217.472933 L301.802696,217.472933 L301.802696,278.882664 Z M242.882212,272.390234 L295.203179,272.390234 L295.203179,223.913423 L242.882212,223.913423 L242.882212,272.390234 Z" id="Shape" fill="url(#linearGradient-26)"></path>
                        <rect id="Rectangle" fill="url(#linearGradient-27)" x="474.842696" y="167.84041" width="84" height="84.1229193"></rect>
                        <rect id="Rectangle" fill="url(#linearGradient-27)" x="474.842696" y="260.375622" width="84" height="84.1229193"></rect>
                        <rect id="Rectangle" fill="url(#linearGradient-28)" opacity="0.65" x="163.202696" y="183.823765" width="39.48" height="10.9359795"></rect>
                        <path d="M256.142009,319.261665 C255.576905,316.263146 255.219997,312.019088 256.305592,311.726925 C258.595752,311.08109 256.142009,319.261665 256.142009,319.261665 Z" id="Path" fill="#28353D"></path>
                        <path d="M376.396372,483.72755 C375.988411,494.322806 367.793711,533.260374 367.52765,543.873289 C367.52765,547.405042 368.467734,552.826281 367.332538,556.234422 C364.991195,563.456855 356.690071,562.467965 355.608087,558.212203 L355.200126,556.093152 C351.3511,535.467719 357.541468,512.069861 355.200126,485.140251 C353.798867,468.699944 347.271488,437.002468 342.996763,436.790563 C340.744108,436.790563 289.323255,545.42726 284.853419,552.119931 C282.653976,555.492754 276.463608,554.962991 273.465979,557.68244 C270.468351,560.40189 298.440302,475.321979 310.164753,430.362774 C312.899195,421.083317 314.682047,411.551871 315.485986,401.91451 C315.80526,396.352001 314.013778,394.480172 319.1399,392.837907 C322.687389,391.707746 327.600661,392.025604 331.396474,391.760723 C335.529299,391.442865 373.966342,391.37223 373.966342,394.091679 C373.593856,408.854403 377.389669,459.252507 376.396372,483.72755 Z" id="Path" fill="#606161"></path>
                        <path d="M376.396372,483.72755 C375.988411,494.322806 367.793711,533.260374 367.52765,543.873289 C367.52765,547.405042 368.467734,552.826281 367.332538,556.234422 C364.991195,563.456855 356.690071,562.467965 355.608087,558.212203 L355.200126,556.093152 C351.3511,535.467719 357.541468,512.069861 355.200126,485.140251 C353.798867,468.699944 347.271488,437.002468 342.996763,436.790563 C340.744108,436.790563 289.323255,545.42726 284.853419,552.119931 C282.653976,555.492754 276.463608,554.962991 273.465979,557.68244 C270.468351,560.40189 298.440302,475.321979 310.164753,430.362774 C312.899195,421.083317 314.682047,411.551871 315.485986,401.91451 C315.80526,396.352001 314.013778,394.480172 319.1399,392.837907 C322.687389,391.707746 327.600661,392.025604 331.396474,391.760723 C335.529299,391.442865 373.966342,391.37223 373.966342,394.091679 C373.593856,408.854403 377.389669,459.252507 376.396372,483.72755 Z" id="Path" fill="url(#linearGradient-29)"></path>
                        <path d="M331.006484,257.976781 C330.683239,254.623754 329.102934,252.804559 327.558544,252.804559 C326.014154,252.804559 325.062379,254.588084 325.385624,257.976781 C325.458973,260.478244 327.342689,262.560306 329.839212,262.899309 C331.40156,262.899309 331.347686,261.329807 331.006484,257.976781 Z" id="Path" fill="#FFCD9C"></path>
                        <path d="M358.19846,257.985935 C358.408673,254.626974 359.950234,252.804559 361.544348,252.804559 C363.138462,252.804559 364.172008,254.59124 363.92676,257.985935 C363.904574,260.521367 362.019864,262.63586 359.547326,262.899309 C357.97073,262.899309 357.953212,261.344896 358.19846,257.985935 Z" id="Path" fill="#FFCD9C"></path>
                        <path d="M361.324899,272.717873 C361.107464,274.489194 353.624076,282.247581 345.107871,282.247581 C336.591666,282.247581 329.561267,275.162296 328.075461,272.328182 C326.589655,269.494069 332.569118,233.04028 336.029959,229.993608 C339.4908,226.946935 353.515358,228.948528 354.693131,230.56043 C357.519787,234.368771 362.248998,265.650302 361.324899,272.717873 Z" id="Path" fill="#F4AD7D"></path>
                        <path d="M357.804385,245.214107 C356.646613,245.77095 352.100656,234.164256 351.147197,232.215306 C350.193737,230.266356 350.346972,228.265201 351.504744,227.708359 C352.662516,227.151516 354.365121,228.300004 355.318581,230.231553 C356.27204,232.163102 358.945131,244.674666 357.804385,245.214107 Z" id="Path" fill="#FFCD9C"></path>
                        <path d="M332.310933,244.381472 C331.110145,243.972158 334.289696,231.924096 334.983108,229.841934 C335.676521,227.759773 337.232471,226.389461 338.365608,226.798775 C339.498746,227.208089 339.972296,229.236861 339.278883,231.336819 C338.585471,233.436777 333.444071,244.790786 332.310933,244.381472 Z" id="Path" fill="#FFCD9C"></path>
                        <path d="M337.076546,271.311601 L355.345009,271.311601 L358.082696,288.659628 C348.130602,294.028814 342.328084,293.436352 334.562696,287.474704 L337.076546,271.311601 Z" id="Path" fill="#F4AD7D"></path>
                        <path d="M344.642696,274.785878 C344.642696,274.466211 345.402696,274.197017 346.322696,274.197017 C347.242696,274.197017 348.002696,274.466211 348.002696,274.785878 C348.002696,275.105545 347.262696,275.156019 346.322696,275.156019 C345.382696,275.156019 344.642696,275.122369 344.642696,274.785878 Z" id="Path" fill="#F4AD7D"></path>
                        <path d="M362.298342,266.943696 C362.989871,262.810212 364.118155,233.210874 361.352039,229.29305 C358.585923,225.375227 342.025623,222.841222 339.51428,223.452258 C333.891057,224.818105 334.873756,228.843759 334.873756,228.843759 C333.202383,228.868803 331.566049,229.320779 330.124044,230.155691 C328.195042,231.449651 324.136858,250.104243 327.376126,264.212002 C328.831977,270.556001 334.564388,276.073303 344.464172,276.342878 C356.656921,276.666368 361.461228,272.065621 362.298342,266.943696 Z" id="Path" fill="#3B3B3B"></path>
                        <path d="M339.582728,224.843773 C340.891633,223.738707 342.587128,223.216565 344.282895,223.396316 C349.430679,223.368511 354.537698,224.320247 359.337565,226.201881 C361.998927,227.136558 364.415666,228.67023 366.405485,230.687211 C368.409284,232.760627 369.332132,235.666417 368.896927,238.532071 C368.013437,242.749354 363.595987,245.35835 362.147063,249.414804 C360.980856,252.667115 361.811337,255.812207 361.846676,259.082388 C361.87008,261.726355 361.68098,264.367872 361.281243,266.980858 C360.468432,272.073762 355.821274,276.648441 343.894159,276.344654 C334.281788,276.076606 328.7158,270.590565 327.302216,264.282512 C325.388495,253.812678 325.890389,243.037393 328.76881,232.795852 C333.94929,234.001808 339.249693,234.601406 344.565611,234.582836 C350.202306,234.630153 355.823022,233.96988 361.298913,232.617154 C362.235412,238.085325 362.217742,249.039537 361.917356,257.223925" id="Path" fill="#353535"></path>
                        <path d="M310.095118,285.573641 C307.212512,285.815372 304.435416,286.77713 302.015509,288.371754 C297.870775,291.645018 297.555985,297.751591 297.625938,303.066246 C297.483903,310.429718 297.993071,317.79131 299.147423,325.063987 C300.389095,331.733703 302.645089,338.139445 304.498852,344.668375 C307.420825,355.292675 308.955215,366.254694 309.063307,377.277827 C309.063307,383.331606 308.958377,389.983723 312.718368,394.717637 C316.828125,399.856309 324.103271,400.859406 330.643907,401.228969 C339.93021,401.774513 349.251491,401.844905 358.537794,401.457745 C364.76364,401.176174 371.391717,400.560237 376.323426,396.723831 C380.258301,393.661745 389.474651,290.061181 382.321924,287.43905 C375.169197,284.816919 367.474331,284.148188 359.884396,283.514653 C342.86825,282.071601 326.848939,280.927718 310.095118,285.573641 Z" id="Path" fill="#4A90E2"></path>
                        <path d="M363.666315,500.370455 C362.753952,512.117962 360.578317,554.805839 360.578317,554.805839 L355.033958,554.612682 C351.226598,534.102834 357.349956,510.836097 355.033958,484.057399 C353.647869,467.709224 347.191147,436.189381 342.962696,435.978663 C344.225967,425.442782 351.331871,427.023164 351.331871,427.023164 C356.499927,434.757497 360.957145,442.944567 364.648859,451.483968 C368.87731,462.581762 364.596223,488.570268 363.666315,500.370455 Z" id="Path" fill="url(#linearGradient-30)"></path>
                        <path d="M259.27871,555.667004 C258.412861,556.308538 257.755777,557.186273 257.388365,558.192137 C257.191387,559.019164 257.27123,559.887014 257.615906,560.665384 C258.595003,562.650791 260.450444,564.075362 262.639325,564.522265 C264.802018,564.93457 267.016628,565.010431 269.203025,564.747105 L276.204305,564.280129 C277.985777,564.238012 279.752812,563.952822 281.455265,563.432653 C283.159464,562.904273 284.566139,561.702131 285.340975,560.11193 C285.7533,558.941121 285.914248,557.69827 285.813561,556.462594 C285.813561,550.737807 283.78319,546.085336 277.447032,547.486266 C270.809993,548.71959 264.575276,551.526926 259.27871,555.667004 L259.27871,555.667004 Z" id="Path" fill="#323232"></path>
                        <path d="M375.57017,558.223621 C376.365721,558.808972 376.968818,559.60839 377.305391,560.52369 C377.485085,561.26841 377.414643,562.049801 377.104471,562.75244 C376.212219,564.550766 374.508777,565.837478 372.501567,566.22929 C370.52294,566.612825 368.494215,566.685057 366.492222,566.44325 L360.135832,566.01533 C358.519003,565.981051 356.914762,565.729052 355.368539,565.26647 C353.809744,564.786341 352.525942,563.694642 351.825034,562.2532 C351.449143,561.194568 351.299938,560.071867 351.386662,558.95465 C351.386662,553.783951 353.213211,549.522582 359.039902,550.842001 C365.080489,551.961263 370.752772,554.494231 375.57017,558.223621 L375.57017,558.223621 Z" id="Path" fill="#303030"></path>
                        <path d="M383.282696,287.294956 C383.282696,287.294956 410.744848,303.41585 418.992497,323.794763 C427.240147,344.173676 391.980545,393.289834 391.980545,393.289834 L384.435206,385.562319 C384.435206,385.562319 402.839349,348.501785 399.99409,339.232271 C397.148831,329.962757 386.001899,321.324061 386.001899,321.324061 L383.282696,287.294956 Z" id="Path" fill="#4A90E2"></path>
                        <path d="M305.162696,319.143077 C305.162696,319.143077 266.978817,336.287867 251.462213,327.874547 C235.945609,319.461228 251.920138,277.200206 251.920138,277.200206 L262.311507,280.735214 C262.311507,280.735214 253.628549,302.281088 263.561994,305.480271 C273.495438,308.679453 303.260547,287.66383 303.260547,287.66383 L305.162696,319.143077 Z" id="Path" fill="#4A90E2"></path>
                        <path d="M377.050728,392.428536 C375.952281,393.143726 375.062178,394.104009 374.461159,395.222281 C374.100344,396.171245 373.970429,397.183504 374.080873,398.185344 C374.014235,400.616144 375.11759,402.946646 377.086945,404.534763 C378.470643,405.277287 380.02114,405.706403 381.614163,405.787715 C382.590569,405.948458 383.589504,405.948458 384.565909,405.787715 C385.561877,405.610337 386.393693,404.972839 386.775192,404.094537 C386.905362,403.538784 386.96012,402.969911 386.938171,402.401358 C387.064934,399.607614 389.165563,397.321822 390.904014,395.036031 C391.323933,394.594403 391.594846,394.046561 391.682696,393.461375 C391.672552,392.813461 391.430248,392.187456 390.994559,391.683538 C389.817482,390.09195 386.901954,387.162751 384.565909,387.416728 C382.229865,387.670705 378.861615,391.04013 377.050728,392.428536 Z" id="Path" fill="#F4AD7D"></path>
                        <path d="M268.865554,270.836078 C269.363038,270.143473 269.70234,269.35901 269.86149,268.533489 C269.988314,267.679687 269.537839,266.842168 268.736451,266.441824 C267.463866,265.967245 265.951519,267.215213 264.697377,266.687902 C264.273045,266.461608 263.91727,266.134653 263.664555,265.738743 C262.183705,263.69421 261.333902,261.294989 261.211602,258.813399 C261.283786,257.490976 261.159604,256.165465 260.842737,254.876147 C260.469783,253.549567 259.140736,252.677831 257.707383,252.819636 C256.527014,253.083291 255.863057,254.225797 255.125327,255.139802 C254.387597,256.053807 252.912136,257.143582 251.953087,258.286088 C250.315657,260.634037 249.378543,263.36194 249.241928,266.178169 C248.725516,269.693572 248.393538,273.718709 250.975594,276.249799 C252.967466,278.200848 259.035297,280.503437 261.820229,279.466393 C264.900253,278.30631 267.31632,273.367169 268.865554,270.836078 Z" id="Path" fill="#F4AD7D"></path>
                    </g>
                    <rect id="Rectangle" fill="#4A90E2" x="550" y="100" width="74" height="438"></rect>
                    <rect id="Rectangle" fill="url(#linearGradient-31)" x="550" y="100" width="39" height="438"></rect>
                    <rect id="Rectangle" fill="url(#linearGradient-32)" opacity="0.65" x="552" y="107" width="20" height="4"></rect>
                    <rect id="Rectangle" fill="url(#linearGradient-32)" opacity="0.65" x="552" y="118" width="20" height="4"></rect>
                    <rect id="Rectangle" fill="url(#linearGradient-33)" opacity="0.65" x="552" y="129" width="20" height="4"></rect>
                    <rect id="Rectangle" fill="url(#linearGradient-33)" opacity="0.65" x="552" y="140" width="20" height="4"></rect>
                    <rect id="Rectangle" fill="url(#linearGradient-33)" opacity="0.65" x="552" y="150" width="20" height="4"></rect>
                    <rect id="Rectangle" fill="url(#linearGradient-34)" opacity="0.65" x="552" y="161" width="20" height="4"></rect>
                    <rect id="Rectangle" fill="url(#linearGradient-34)" opacity="0.65" x="552" y="172" width="20" height="4"></rect>
                    <rect id="Rectangle" fill="url(#linearGradient-34)" opacity="0.65" x="552" y="183" width="20" height="4"></rect>
                    <rect id="Rectangle" fill="url(#linearGradient-34)" opacity="0.65" x="552" y="194" width="20" height="4"></rect>
                    <rect id="Rectangle" fill="url(#linearGradient-32)" opacity="0.65" x="552" y="204" width="20" height="4"></rect>
                    <rect id="Rectangle" fill="url(#linearGradient-32)" opacity="0.65" x="552" y="216" width="20" height="4"></rect>
                    <rect id="Rectangle" fill="url(#linearGradient-32)" opacity="0.65" x="552" y="226" width="20" height="4"></rect>
                    <rect id="Rectangle" fill="url(#linearGradient-32)" opacity="0.65" x="552" y="237" width="20" height="4"></rect>
                    <rect id="Rectangle" fill="url(#linearGradient-32)" opacity="0.65" x="552" y="248" width="20" height="4"></rect>
                    <rect id="Rectangle" fill="url(#linearGradient-32)" opacity="0.65" x="552" y="259" width="20" height="4"></rect>
                    <rect id="Rectangle" fill="url(#linearGradient-32)" opacity="0.65" x="552" y="270" width="20" height="4"></rect>
                    <rect id="Rectangle" fill="url(#linearGradient-33)" opacity="0.65" x="552" y="280" width="20" height="4"></rect>
                    <rect id="Rectangle" fill="url(#linearGradient-33)" opacity="0.65" x="552" y="291" width="20" height="4"></rect>
                    <rect id="Rectangle" fill="url(#linearGradient-34)" opacity="0.65" x="552" y="302" width="20" height="4"></rect>
                    <rect id="Rectangle" fill="url(#linearGradient-34)" opacity="0.65" x="552" y="313" width="20" height="4"></rect>
                    <rect id="Rectangle" fill="url(#linearGradient-34)" opacity="0.65" x="552" y="324" width="20" height="4"></rect>
                    <rect id="Rectangle" fill="url(#linearGradient-34)" opacity="0.65" x="552" y="334" width="20" height="4"></rect>
                    <rect id="Rectangle" fill="url(#linearGradient-34)" opacity="0.65" x="552" y="345" width="20" height="4"></rect>
                    <rect id="Rectangle" fill="url(#linearGradient-32)" opacity="0.65" x="552" y="356" width="20" height="4"></rect>
                    <rect id="Rectangle" fill="url(#linearGradient-32)" opacity="0.65" x="552" y="367" width="20" height="4"></rect>
                    <rect id="Rectangle" fill="url(#linearGradient-32)" opacity="0.65" x="552" y="377" width="20" height="4"></rect>
                    <rect id="Rectangle" fill="url(#linearGradient-32)" opacity="0.65" x="552" y="388" width="20" height="4"></rect>
                    <rect id="Rectangle" fill="url(#linearGradient-32)" opacity="0.65" x="552" y="399" width="20" height="4"></rect>
                    <rect id="Rectangle" fill="url(#linearGradient-32)" opacity="0.65" x="552" y="411" width="20" height="4"></rect>
                    <rect id="Rectangle" fill="url(#linearGradient-32)" opacity="0.65" x="552" y="422" width="20" height="4"></rect>
                    <rect id="Rectangle" fill="url(#linearGradient-33)" opacity="0.65" x="552" y="433" width="20" height="4"></rect>
                    <rect id="Rectangle" fill="url(#linearGradient-33)" opacity="0.65" x="552" y="444" width="20" height="4"></rect>
                    <rect id="Rectangle" fill="url(#linearGradient-34)" opacity="0.65" x="552" y="454" width="20" height="4"></rect>
                    <rect id="Rectangle" fill="url(#linearGradient-34)" opacity="0.65" x="552" y="465" width="20" height="4"></rect>
                    <rect id="Rectangle" fill="url(#linearGradient-34)" opacity="0.65" x="552" y="476" width="20" height="4"></rect>
                    <rect id="Rectangle" fill="url(#linearGradient-34)" opacity="0.65" x="552" y="486" width="20" height="4"></rect>
                    <rect id="Rectangle" fill="url(#linearGradient-34)" opacity="0.65" x="552" y="497" width="20" height="4"></rect>
                    <rect id="Rectangle" fill="url(#linearGradient-32)" opacity="0.65" x="552" y="508" width="20" height="4"></rect>
                    <rect id="Rectangle" fill="url(#linearGradient-32)" opacity="0.65" x="552" y="518" width="20" height="4"></rect>
                    <rect id="Rectangle" fill="url(#linearGradient-32)" opacity="0.65" x="552" y="529" width="20" height="4"></rect>
                </g>
            </g>
        </g>
    </g>
</svg>