<?xml version="1.0" encoding="UTF-8"?>
<svg width="171px" height="143px" viewBox="0 0 171 143" version="1.1" xmlns="http://www.w3.org/2000/svg" xmlns:xlink="http://www.w3.org/1999/xlink">
    <!-- Generator: Sketch 57 (83077) - https://sketch.com -->
    <title>Group 20@1,5x</title>
    <desc>Created with Sketch.</desc>
    <g id="Page-1" stroke="none" stroke-width="1" fill="none" fill-rule="evenodd">
        <g id="EPIPAY-Homepage" transform="translate(-786.000000, -1046.000000)">
            <g id="Icon" transform="translate(771.000000, 1032.000000)">
                <g id="Group-20">
                    <path d="M76.869518,47.47182 C76.869518,47.47182 47.809716,35.22026 47.876872,63.08088 C47.930638,85.3723 47.895206,98.787 30.955826,98.97825 C14.016652,99.17018 1.762536,138.32662 41.813262,139.49656 C81.864194,140.66633 97.486822,107.03625 109.479524,137.65155 C121.47202,168.26736 165.582388,160.25611 161.6379,129.70864 C157.693412,99.16083 164.240092,96.95015 177.985236,84.91704 C204.893162,61.36031 158.298022,1.37955 123.510596,39.19707 C88.723376,77.01408 89.521008,55.85996 76.869518,47.47182 Z" id="Shape-505-copy-2" fill="#F3F8FA"></path>
                    <g id="Group-22" transform="translate(52.000000, 14.000000)">
                        <polygon id="Fill-1" fill="#F2F8FF" points="23.2910697 62.0645422 23.2910697 92.2580533 8.31821461 92.2580533 8.31821461 83.8709733 0 83.8709733 0 8.38702222 23.2910697 8.38702222"></polygon>
                        <path d="M23.2910697,33.5486667 L11.6455348,33.5486667 C10.7251854,33.5486667 9.98190337,32.7987111 9.98190337,31.8708 C9.98190337,30.9428889 10.7251854,30.1935111 11.6455348,30.1935111 L23.2910697,30.1935111 C24.2114191,30.1935111 24.9547011,30.9428889 24.9547011,31.8708 C24.9547011,32.7987111 24.2114191,33.5486667 23.2910697,33.5486667 Z" id="Fill-2" fill="#4A90E2"></path>
                        <path d="M23.2910697,43.6129778 L11.6455348,43.6129778 C10.7251854,43.6129778 9.98190337,42.8636 9.98190337,41.9356889 C9.98190337,41.0077778 10.7251854,40.2578222 11.6455348,40.2578222 L23.2910697,40.2578222 C24.2114191,40.2578222 24.9547011,41.0077778 24.9547011,41.9356889 C24.9547011,42.8636 24.2114191,43.6129778 23.2910697,43.6129778 Z" id="Fill-3" fill="#4A90E2"></path>
                        <path d="M23.2910697,53.6774044 L11.6455348,53.6774044 C10.7251854,53.6774044 9.98190337,52.9279689 9.98190337,52 C9.98190337,51.0720311 10.7251854,50.3225956 11.6455348,50.3225956 L23.2910697,50.3225956 C24.2114191,50.3225956 24.9547011,51.0720311 24.9547011,52 C24.9547011,52.9279689 24.2114191,53.6774044 23.2910697,53.6774044 Z" id="Fill-4" fill="#4A90E2"></path>
                        <path d="M23.2910697,63.7419467 L11.6455348,63.7419467 C10.7251854,63.7419467 9.98190337,62.9925111 9.98190337,62.0645422 C9.98190337,61.1365156 10.7251854,60.38708 11.6455348,60.38708 L23.2910697,60.38708 C24.2114191,60.38708 24.9547011,61.1365156 24.9547011,62.0645422 C24.9547011,62.9925111 24.2114191,63.7419467 23.2910697,63.7419467 Z" id="Fill-5" fill="#4A90E2"></path>
                        <polygon id="Fill-6" fill="#F5F7FA" points="8.31821461 83.8709733 8.31821461 92.2580533 0 83.8709733"></polygon>
                        <path d="M29.9456528,98.9677289 L88.1732697,98.9677289 L88.1732697,93.9354578 L89.8367865,93.9354578 C92.598809,93.9354578 94.8279101,91.6880178 94.8279101,88.9032444 L94.8279101,98.9677289 C94.8279101,101.752502 92.598809,104 89.8367865,104 L28.281964,104 C25.5200562,104 23.2910697,101.752502 23.2910697,98.9677289 C23.2910697,96.2001733 25.5200562,93.9354578 28.281964,93.9354578 L29.9456528,93.9354578 L29.9456528,98.9677289 Z" id="Fill-7" fill="#F6B445"></path>
                        <polygon id="Fill-8" fill="#F5F7FA" points="29.9456528 98.9677289 88.173327 98.9677289 88.173327 93.9354578 29.9456528 93.9354578"></polygon>
                        <polygon id="Fill-9" fill="#F6B445" points="101.482551 8.38702222 101.482551 30.1935111 94.8279101 36.9032444 94.8279101 8.38702222"></polygon>
                        <path d="M89.8367865,0 L28.281964,0 C25.5200562,0 23.2910697,2.24755556 23.2910697,5.03244444 L23.2910697,98.9677289 C23.2910697,96.2001733 25.5200562,93.9354578 28.281964,93.9354578 L89.8367865,93.9354578 C92.598809,93.9354578 94.8279101,91.6880178 94.8279101,88.9032444 L94.8279101,5.03244444 C94.8279101,2.24755556 92.598809,0 89.8367865,0 Z M44.9184506,45.3237778 C42.1565427,45.3237778 39.9274989,43.0762222 39.9274989,40.2919111 L49.9094022,40.2919111 C49.9094022,43.0762222 47.663282,45.3237778 44.9184506,45.3237778 Z M74.8479438,45.3237778 C72.0859213,45.3237778 69.8568202,43.0762222 69.8568202,40.2919111 L79.8384944,40.2919111 C79.8384944,43.0762222 77.6088202,45.3237778 74.8479438,45.3237778 Z" id="Fill-10" fill="#FED049"></path>
                        <path d="M49.9012652,41.9692 C49.2042843,41.9692 48.5552663,41.5243111 48.3237034,40.8217333 L43.332809,25.7215111 C43.0419944,24.8427111 43.5122831,23.8934222 44.384727,23.5976 C45.2612393,23.3029333 46.1994674,23.7801778 46.4886775,24.6601333 L51.4796292,39.7603556 C51.7712461,40.6391556 51.3000978,41.5884444 50.4284562,41.8836889 C50.252191,41.9420444 50.0759258,41.9692 49.9012652,41.9692 Z" id="Fill-11" fill="#4A90E2"></path>
                        <path d="M59.8831685,60.4239422 C58.9628764,60.4239422 58.2196517,59.6745067 58.2196517,58.7465378 L58.2196517,20.1592444 C58.2196517,19.2313333 58.9628764,18.4819556 59.8831685,18.4819556 C60.8028876,18.4819556 61.5466854,19.2313333 61.5466854,20.1592444 L61.5466854,58.7481556 C61.5466854,59.6745067 60.8028876,60.4239422 59.8831685,60.4239422 Z" id="Fill-12" fill="#4A90E2"></path>
                        <path d="M69.8619775,41.9692 C69.6889213,41.9692 69.5107079,41.9420444 69.3353596,41.8836889 C68.4654944,41.5884444 67.9933146,40.6403111 68.2844157,39.7603556 L73.2749663,24.6601333 C73.5666404,23.7830667 74.4978202,23.3029333 75.3797191,23.5976 C76.2501573,23.8934222 76.7229101,24.8409778 76.431236,25.7215111 L71.4401124,40.8217333 C71.2068876,41.5243111 70.5587865,41.9692 69.8619775,41.9692 Z" id="Fill-13" fill="#4A90E2"></path>
                        <path d="M79.8436517,41.9692 C79.1468427,41.9692 78.4975955,41.5243111 78.2660899,40.8217333 L73.2749663,25.7215111 C72.9844382,24.8427111 73.4548989,23.8934222 74.3264831,23.5976 C75.2037978,23.3029333 76.1401348,23.7801778 76.431236,24.6601333 L81.4217865,39.7603556 C81.7134607,40.6391556 81.242427,41.5884444 80.3708427,41.8836889 C80.1943483,41.9420444 80.018427,41.9692 79.8436517,41.9692 Z" id="Fill-14" fill="#4A90E2"></path>
                        <path d="M73.1924494,60.4239422 L46.5739449,60.4239422 C45.6535955,60.4239422 44.9103135,59.6745067 44.9103135,58.7465378 C44.9103135,57.8193778 45.6535955,57.0691333 46.5739449,57.0691333 L73.1924494,57.0691333 C74.1115955,57.0691333 74.8559663,57.8193778 74.8559663,58.7465378 C74.8559663,59.6745067 74.1115955,60.4239422 73.1924494,60.4239422 Z" id="Fill-15" fill="#4A90E2"></path>
                        <path d="M79.8533933,72.1609778 L39.9128865,72.1609778 C38.9925371,72.1609778 38.2492551,71.4107333 38.2492551,70.4835733 C38.2492551,69.5555467 38.9925371,68.8061111 39.9128865,68.8061111 L79.8533933,68.8061111 C80.7731124,68.8061111 81.5169101,69.5555467 81.5169101,70.4835733 C81.5169101,71.4107333 80.7731124,72.1609778 79.8533933,72.1609778 Z" id="Fill-16" fill="#F6B445"></path>
                        <path d="M69.8717191,77.1915733 L49.8979989,77.1915733 C48.9776494,77.1915733 48.2343674,76.4413289 48.2343674,75.5141689 C48.2343674,74.5862 48.9776494,73.8367644 49.8979989,73.8367644 L69.8717191,73.8367644 C70.7908652,73.8367644 71.535236,74.5862 71.535236,75.5141689 C71.535236,76.4413289 70.7908652,77.1915733 69.8717191,77.1915733 Z" id="Fill-17" fill="#F6B445"></path>
                        <path d="M39.9193618,41.9692 C39.7463629,41.9692 39.568436,41.9420444 39.3938326,41.8836889 C38.5229933,41.5884444 38.0510427,40.6403111 38.3418573,39.7603556 L43.332809,24.6601333 C43.6244258,23.7830667 44.5577831,23.3029333 45.4375045,23.5976 C46.3075416,23.8934222 46.7802944,24.8409778 46.4886775,25.7215111 L41.4977258,40.8217333 C41.265418,41.5243111 40.6163427,41.9692 39.9193618,41.9692 Z" id="Fill-18" fill="#4A90E2"></path>
                        <path d="M49.9012652,38.6140444 L39.9193618,38.6140444 C38.9990124,38.6140444 38.2557303,39.3634222 38.2557303,40.2919111 C38.2557303,43.9902667 41.2402045,47.0012978 44.9103135,47.0012978 C48.5804225,47.0012978 51.5648966,43.9902667 51.5648966,40.2919111 C51.5648966,39.3634222 50.8208124,38.6140444 49.9012652,38.6140444 Z" id="Fill-19" fill="#4A90E2"></path>
                        <path d="M79.8436517,38.6140444 L69.8619775,38.6140444 C68.9416854,38.6140444 68.1978876,39.3634222 68.1978876,40.2919111 C68.1978876,43.9902667 71.1828202,47.0012978 74.8525281,47.0012978 C78.522809,47.0012978 81.5071685,43.9902667 81.5071685,40.2919111 C81.5071685,39.3634222 80.7633708,38.6140444 79.8436517,38.6140444 Z" id="Fill-20" fill="#4A90E2"></path>
                        <path d="M74.8525281,26.8689778 L44.9103135,26.8689778 C43.989964,26.8689778 43.246682,26.1190222 43.246682,25.1916889 C43.246682,24.2637778 43.989964,23.5144 44.9103135,23.5144 L74.8525281,23.5144 C75.7722472,23.5144 76.516618,24.2637778 76.516618,25.1916889 C76.516618,26.1190222 75.7722472,26.8689778 74.8525281,26.8689778 Z" id="Fill-21" fill="#4A90E2"></path>
                    </g>
                </g>
            </g>
        </g>
    </g>
</svg>