<?xml version="1.0" encoding="UTF-8"?>
<svg width="81px" height="80px" viewBox="0 0 81 80" version="1.1" xmlns="http://www.w3.org/2000/svg" xmlns:xlink="http://www.w3.org/1999/xlink">
    <!-- Generator: Sketch 57 (83077) - https://sketch.com -->
    <title>Circle Icon@1,5x</title>
    <desc>Created with Sketch.</desc>
    <g id="Page-1" stroke="none" stroke-width="1" fill="none" fill-rule="evenodd">
        <g id="EPIPAY-Homepage" transform="translate(-171.000000, -4978.000000)">
            <g id="Bubble-List-Copy-9" transform="translate(171.000000, 4978.000000)">
                <g id="Circle-Icon" transform="translate(0.450000, 0.000000)">
                    <circle id="Oval" fill="#549CE1" cx="39.9999976" cy="39.9999976" r="39.9999976"></circle>
                    <g id="Icons/BPJS-Copy-7" transform="translate(14.399999, 14.399999)" fill="#FFFFFF">
                        <path d="M41.028569,38.6059633 L41.028569,15.2154293 C41.028569,14.9811131 40.8374833,14.792396 40.599769,14.792396 L34.7711979,14.792396 C34.5339408,14.792396 34.3428551,14.9811131 34.3428551,15.2154293 L34.3428551,38.6059633 L32.7410266,38.6059633 L32.7410266,11.6230326 C32.7410266,11.3887164 32.5499409,11.1999993 32.3126838,11.1999993 L18.8873132,11.1999993 C18.650056,11.1999993 18.4589703,11.3887164 18.4589703,11.6230326 L18.4589703,38.6059633 L16.860799,38.6059633 L16.860799,15.2154293 C16.860799,14.9811131 16.6697133,14.792396 16.431999,14.792396 L10.6034279,14.792396 C10.3661708,14.7905901 10.171428,14.9811131 10.171428,15.2154293 L10.171428,38.6059633 L9.24662802,38.6059633 C9.00342803,38.5969338 8.80182805,38.7892627 8.79999948,39.0289966 L8.79999948,40.3834254 C8.80548519,40.619999 9.00525661,40.8087161 9.24662802,40.7996865 L41.9533689,40.7996865 C42.1983975,40.8087161 42.3999975,40.6145813 42.3999975,40.3730415 L42.3999975,39.0186126 C42.3926832,38.783845 42.1929118,38.5987397 41.9533689,38.6059633 L41.028569,38.6059633 Z M14.6285706,36.7648431 L14.6285706,36.7648431 C14.6230848,36.9973534 14.425142,37.1811042 14.1892563,37.1738806 L12.8429707,37.1738806 C12.6089135,37.1738806 12.4178278,36.9851635 12.4178278,36.7540077 L12.4178278,35.4298278 C12.4178278,35.1986719 12.6089135,35.0099548 12.8429707,35.0099548 L14.1910849,35.0099548 C14.4301706,35.0027312 14.6285706,35.1932542 14.6285706,35.4298278 L14.6285706,36.7648431 Z M14.6285706,33.1688346 L14.6285706,33.1688346 C14.6285706,33.4031508 14.4374849,33.5918679 14.1997706,33.5918679 L12.8429707,33.5918679 C12.6052564,33.5918679 12.4141707,33.4031508 12.4141707,33.1688346 L12.4141707,31.8374311 C12.4159993,31.6044693 12.607085,31.4175582 12.8429707,31.4175582 L14.1910849,31.4175582 C14.4301706,31.4121405 14.626742,31.6008575 14.6285706,31.8374311 L14.6285706,33.1688346 Z M14.6285706,29.5764379 L14.6285706,29.5764379 C14.6285706,29.8107541 14.4374849,29.9994712 14.1997706,29.9994712 L12.8429707,29.9994712 C12.6052564,29.9994712 12.4141707,29.8107541 12.4141707,29.5764379 L12.4141707,28.2450344 C12.4141707,28.0102668 12.6052564,27.8215497 12.8429707,27.8215497 L14.1910849,27.8215497 C14.4301706,27.816132 14.6285706,28.006655 14.6285706,28.2450344 L14.6285706,29.5764379 Z M14.6285706,25.9804295 L14.6285706,25.9804295 C14.6285706,26.2151971 14.4374849,26.4039142 14.1997706,26.4039142 L12.8429707,26.4039142 C12.6052564,26.4039142 12.4141707,26.2151971 12.4141707,25.9804295 L12.4141707,24.6454141 C12.4141707,24.4106465 12.6052564,24.2219294 12.8429707,24.2219294 L14.1910849,24.2219294 C14.4301706,24.2169631 14.6285706,24.4074861 14.6285706,24.6454141 L14.6285706,25.9804295 Z M14.6285706,22.3880328 L14.6285706,22.3880328 C14.6285706,22.6228004 14.4374849,22.8115175 14.1997706,22.8115175 L12.8429707,22.8115175 C12.6052564,22.8115175 12.4141707,22.6228004 12.4141707,22.3880328 L12.4141707,21.0566293 C12.4141707,20.8218616 12.6052564,20.6331445 12.8429707,20.6331445 L14.1910849,20.6331445 C14.4301706,20.6281783 14.6285706,20.8182498 14.6285706,21.0566293 L14.6285706,22.3880328 Z M14.6285706,18.7956361 L14.6285706,18.7956361 C14.6340563,19.0371759 14.4338277,19.2331166 14.1892563,19.2276989 L12.8429707,19.2276989 C12.6052564,19.2276989 12.4141707,19.0389818 12.4141707,18.8042141 L12.4141707,17.4606208 C12.4141707,17.2258531 12.6052564,17.037136 12.8429707,17.037136 L14.1910849,17.037136 C14.4301706,17.0321698 14.6285706,17.2226928 14.6285706,17.4606208 L14.6285706,18.7956361 Z M22.9051415,36.7648431 L22.9051415,36.7648431 C22.9001129,36.9923871 22.7108558,37.1738806 22.4804558,37.1738806 L21.1428559,37.1738806 C20.9087988,37.1738806 20.7177131,36.9851635 20.7177131,36.7540077 L20.7177131,35.4298278 C20.7177131,35.1986719 20.9087988,35.0099548 21.1428559,35.0099548 L22.4804558,35.0099548 C22.7145129,35.0099548 22.9051415,35.1986719 22.9051415,35.4298278 L22.9051415,36.7648431 Z M22.9051415,33.1724464 L22.9051415,33.1724464 C22.9051415,33.4031508 22.7145129,33.5918679 22.4804558,33.5918679 L21.1428559,33.5918679 C20.9087988,33.5918679 20.7177131,33.4031508 20.7177131,33.1724464 L20.7177131,31.8374311 C20.7177131,31.6062752 20.9087988,31.4175582 21.1428559,31.4175582 L22.4804558,31.4175582 C22.7145129,31.4175582 22.9051415,31.6062752 22.9051415,31.8374311 L22.9051415,33.1724464 Z M22.9051415,29.5800498 L22.9051415,29.5800498 C22.9037701,29.8107541 22.7126844,29.9963109 22.4804558,29.9963109 L21.1428559,29.9963109 C20.9087988,29.9963109 20.7177131,29.8075938 20.7177131,29.5764379 L20.7177131,28.2450344 C20.7158845,28.0120727 20.9069702,27.8215497 21.1428559,27.8215497 L22.4804558,27.8215497 C22.7145129,27.8215497 22.9051415,28.0102668 22.9051415,28.2414226 L22.9051415,29.5800498 Z M22.9051415,25.9840413 L22.9051415,25.9840413 C22.9051415,26.2151971 22.7145129,26.4039142 22.4804558,26.4039142 L21.1428559,26.4039142 C20.9087988,26.4039142 20.7177131,26.2151971 20.7177131,25.9840413 L20.7177131,24.6454141 C20.7195416,24.4142583 20.9087988,24.229153 21.1428559,24.229153 L22.4804558,24.229153 C22.7145129,24.229153 22.9037701,24.4142583 22.9051415,24.6454141 L22.9051415,25.9840413 Z M22.9051415,22.3916446 L22.9051415,22.3916446 C22.9051415,22.6228004 22.7145129,22.8115175 22.4804558,22.8115175 L21.1428559,22.8115175 C20.9087988,22.8115175 20.7177131,22.6228004 20.7177131,22.3916446 L20.7177131,21.0566293 C20.7158845,20.8236675 20.9069702,20.6331445 21.1428559,20.6331445 L22.4804558,20.6331445 C22.7145129,20.6331445 22.9051415,20.8218616 22.9051415,21.0530174 L22.9051415,22.3916446 Z M22.9051415,18.7992479 L22.9051415,18.7992479 C22.9106272,19.0335641 22.7177129,19.2276989 22.4804558,19.2276989 L21.1428559,19.2276989 C20.9087988,19.2276989 20.7177131,19.0389818 20.7177131,18.807826 L20.7177131,17.4606208 C20.7177131,17.227659 20.9069702,17.0407478 21.1428559,17.0407478 L22.4804558,17.0407478 C22.7145129,17.0407478 22.9051415,17.2294649 22.9051415,17.4606208 L22.9051415,18.7992479 Z M22.9051415,15.2068512 L22.9051415,15.2068512 C22.9051415,15.4375556 22.7145129,15.6262727 22.4804558,15.6262727 L21.1428559,15.6262727 C20.9087988,15.6262727 20.7177131,15.4375556 20.7177131,15.2068512 L20.7177131,13.8682241 C20.7158845,13.6352623 20.9069702,13.4447393 21.1428559,13.4447393 L22.4804558,13.4447393 C22.7145129,13.4447393 22.9051415,13.6334564 22.9051415,13.8646123 L22.9051415,15.2068512 Z M26.6998841,36.7648431 L26.6998841,36.7648431 C26.6948556,36.9887753 26.5124556,37.1684629 26.2857127,37.1738806 L24.9142842,37.1738806 C24.6802271,37.1738806 24.4891414,36.9851635 24.4891414,36.7540077 L24.4891414,35.4298278 C24.4891414,35.1986719 24.6802271,35.0099548 24.9142842,35.0099548 L26.2857127,35.0099548 C26.5197698,35.0099548 26.7108556,35.1986719 26.7108556,35.4298278 L26.6998841,36.7648431 Z M26.6998841,33.1724464 L26.6998841,33.1724464 C26.6998841,33.3999905 26.5161127,33.5850957 26.2857127,33.5918679 L24.9142842,33.5918679 C24.6802271,33.5918679 24.4891414,33.4031508 24.4891414,33.1724464 L24.4891414,31.8374311 C24.4891414,31.6062752 24.6802271,31.4175582 24.9142842,31.4175582 L26.2857127,31.4175582 C26.5197698,31.4175582 26.7108556,31.6062752 26.7108556,31.8374311 L26.6998841,33.1724464 Z M26.6998841,29.5800498 L26.6998841,29.5800498 C26.6980556,29.8057879 26.5142841,29.9890873 26.2857127,29.9963109 L24.9142842,29.9963109 C24.6802271,29.9963109 24.4891414,29.8075938 24.4891414,29.5764379 L24.4891414,28.2450344 C24.4873128,28.0120727 24.6783985,27.8215497 24.9142842,27.8215497 L26.2857127,27.8215497 C26.5197698,27.8215497 26.7108556,28.0102668 26.7108556,28.2414226 L26.6998841,29.5800498 Z M26.6998841,25.9840413 L26.6998841,25.9840413 C26.6998841,26.2115853 26.5161127,26.3966906 26.2857127,26.4021083 L24.9142842,26.4021083 C24.6802271,26.4021083 24.4891414,26.2133912 24.4891414,25.9822354 L24.4891414,24.6454141 C24.49097,24.4142583 24.6802271,24.229153 24.9142842,24.229153 L26.2857127,24.229153 C26.5142841,24.2345707 26.6980556,24.419676 26.6998841,24.6454141 L26.6998841,25.9840413 Z M26.6998841,22.3916446 L26.6998841,22.3916446 C26.6980556,22.6173827 26.5142841,22.8006821 26.2857127,22.8060998 L24.9142842,22.8060998 C24.6802271,22.8060998 24.4891414,22.6173827 24.4891414,22.3862269 L24.4891414,21.0566293 C24.4873128,20.8236675 24.6783985,20.6331445 24.9142842,20.6331445 L26.2857127,20.6331445 C26.5197698,20.6331445 26.7108556,20.8218616 26.7108556,21.0530174 L26.6998841,22.3916446 Z M26.6998841,18.7992479 L26.6998841,18.7992479 C26.7053698,19.0299523 26.5197698,19.2222812 26.2857127,19.2276989 L24.9142842,19.2276989 C24.6802271,19.2276989 24.4891414,19.0389818 24.4891414,18.807826 L24.4891414,17.4606208 C24.4891414,17.227659 24.6783985,17.0407478 24.9142842,17.0407478 L26.2857127,17.0407478 C26.5197698,17.0407478 26.7108556,17.2294649 26.7108556,17.4606208 L26.6998841,18.7992479 Z M26.6998841,15.2068512 L26.6998841,15.2068512 C26.6948556,15.4307835 26.5124556,15.6122769 26.2857127,15.6176946 L24.9142842,15.6176946 C24.6802271,15.6176946 24.4891414,15.4289776 24.4891414,15.1978217 L24.4891414,13.8682241 C24.4873128,13.6352623 24.6783985,13.4447393 24.9142842,13.4447393 L26.2857127,13.4447393 C26.5197698,13.4447393 26.7108556,13.6334564 26.7108556,13.8646123 L26.6998841,15.2068512 Z M30.4964553,36.7648431 L30.4964553,36.7648431 C30.4909696,36.9973534 30.2930268,37.1811042 30.0571411,37.1738806 L28.7231983,37.1738806 C28.4891412,37.1738806 28.2980555,36.9851635 28.2980555,36.7540077 L28.2980555,35.4298278 C28.2980555,35.1986719 28.4891412,35.0099548 28.7231983,35.0099548 L30.0571411,35.0099548 C30.2911982,35.0099548 30.4822839,35.1986719 30.4822839,35.4298278 L30.4964553,36.7648431 Z M30.4964553,33.1724464 L30.4964553,33.1724464 C30.4964553,33.4085685 30.2962268,33.5990915 30.0571411,33.5918679 L28.7231983,33.5918679 C28.4891412,33.5918679 28.2980555,33.4031508 28.2980555,33.1724464 L28.2980555,31.8374311 C28.2980555,31.6062752 28.4891412,31.4175582 28.7231983,31.4175582 L30.0571411,31.4175582 C30.2911982,31.4175582 30.4822839,31.6062752 30.4822839,31.8374311 L30.4964553,33.1724464 Z M30.4964553,29.5800498 L30.4964553,29.5800498 C30.4946268,29.8161718 30.2962268,30.003083 30.0571411,29.9963109 L28.7231983,29.9963109 C28.4891412,29.9963109 28.2980555,29.8075938 28.2980555,29.5764379 L28.2980555,28.2450344 C28.2980555,28.0138786 28.4891412,27.8251615 28.7231983,27.8251615 L30.0571411,27.8251615 C30.2911982,27.8251615 30.4822839,28.0138786 30.4822839,28.2450344 L30.4964553,29.5800498 Z M30.4964553,25.9840413 L30.4964553,25.9840413 C30.4964553,26.2201634 30.2962268,26.4106863 30.0571411,26.4021083 L28.7231983,26.4021083 C28.4891412,26.4021083 28.2980555,26.2133912 28.2980555,25.9822354 L28.2980555,24.6454141 C28.2980555,24.4142583 28.4891412,24.2255412 28.7231983,24.2255412 L30.0571411,24.2255412 C30.2962268,24.218769 30.4964553,24.4074861 30.4964553,24.6454141 L30.4964553,25.9840413 Z M30.4964553,22.3916446 L30.4964553,22.3916446 C30.4946268,22.6277667 30.2962268,22.8146778 30.0571411,22.8060998 L28.7231983,22.8060998 C28.4891412,22.8060998 28.2980555,22.6173827 28.2980555,22.3862269 L28.2980555,21.0566293 C28.2980555,20.8254734 28.4891412,20.6367563 28.7231983,20.6367563 L30.0571411,20.6367563 C30.2911982,20.6367563 30.4822839,20.8254734 30.4822839,21.0566293 L30.4964553,22.3916446 Z M30.4964553,18.7992479 L30.4964553,18.7992479 C30.501941,19.0407877 30.3017125,19.2367284 30.0571411,19.2276989 L28.7231983,19.2276989 C28.4891412,19.2276989 28.2980555,19.0389818 28.2980555,18.807826 L28.2980555,17.4606208 C28.2980555,17.2294649 28.4891412,17.0407478 28.7231983,17.0407478 L30.0571411,17.0407478 C30.2911982,17.0407478 30.4822839,17.2294649 30.4822839,17.4606208 L30.4964553,18.7992479 Z M30.4964553,15.2068512 L30.4964553,15.2068512 C30.4909696,15.4411674 30.2948553,15.6262727 30.0571411,15.6176946 L28.7231983,15.6176946 C28.4891412,15.6176946 28.2980555,15.4289776 28.2980555,15.1978217 L28.2980555,13.8682241 C28.2980555,13.6370682 28.4891412,13.4483512 28.7231983,13.4483512 L30.0571411,13.4483512 C30.2911982,13.4483512 30.4822839,13.6370682 30.4822839,13.8682241 L30.4964553,15.2068512 Z M38.7858263,36.7648431 L38.7858263,36.7648431 C38.7803405,36.9941931 38.5892548,37.1756865 38.3570263,37.1738806 L37.0107407,37.1738806 C36.774855,37.1811042 36.5769121,36.9973534 36.5714264,36.7648431 L36.5714264,35.4298278 C36.5714264,35.1986719 36.7625121,35.0099548 36.9965692,35.0099548 L38.3446834,35.0099548 C38.5787406,35.0099548 38.7698263,35.1986719 38.7698263,35.4298278 L38.7858263,36.7648431 Z M38.7858263,33.1688346 L38.7858263,33.1688346 C38.7858263,33.4031508 38.5947406,33.5918679 38.3570263,33.5918679 L37.0107407,33.5918679 C36.7698264,33.5972856 36.5714264,33.4067626 36.5714264,33.1688346 L36.5714264,31.8374311 C36.573255,31.6008575 36.771655,31.4121405 37.0107407,31.4175582 L38.3588549,31.4175582 C38.5965691,31.4175582 38.7876548,31.6062752 38.7876548,31.8410429 L38.7858263,33.1688346 Z M38.7858263,29.5764379 L38.7858263,29.5764379 C38.7858263,29.8107541 38.5947406,29.9994712 38.3570263,29.9994712 L37.0107407,29.9994712 C36.7698264,30.0048889 36.5714264,29.8143659 36.5714264,29.5764379 L36.5714264,28.2450344 C36.5714264,28.0102668 36.7625121,27.8215497 37.0002264,27.8215497 L38.3483406,27.8215497 C38.5855977,27.8215497 38.7766834,28.0102668 38.7766834,28.2450344 L38.7858263,29.5764379 Z M38.7858263,25.9804295 L38.7858263,25.9804295 C38.7858263,26.2151971 38.5947406,26.4039142 38.3570263,26.4039142 L37.0107407,26.4039142 C36.7698264,26.4088804 36.5714264,26.2183574 36.5714264,25.9786235 L36.5714264,24.6454141 C36.5714264,24.4106465 36.7625121,24.2219294 37.0002264,24.2219294 L38.3483406,24.2219294 C38.5892548,24.2169631 38.7858263,24.4074861 38.7858263,24.6454141 L38.7858263,25.9804295 Z M38.7858263,22.3880328 L38.7858263,22.3880328 C38.7858263,22.6228004 38.5947406,22.8115175 38.3570263,22.8115175 L37.0107407,22.8115175 C36.7698264,22.8164838 36.5714264,22.6259608 36.5714264,22.3862269 L36.5714264,21.0566293 C36.5714264,20.8218616 36.7625121,20.6331445 37.0002264,20.6331445 L38.3483406,20.6331445 C38.5855977,20.6331445 38.7766834,20.8218616 38.7766834,21.0566293 L38.7858263,22.3880328 Z M38.7858263,18.7956361 L38.7858263,18.7956361 C38.7908548,19.0317582 38.5983977,19.2276989 38.3570263,19.2276989 L37.0107407,19.2276989 C36.7643407,19.2349225 36.5641121,19.0335641 36.5714264,18.7902184 L36.5714264,17.4606208 C36.5714264,17.2258531 36.7625121,17.037136 37.0002264,17.037136 L38.3483406,17.037136 C38.5855977,17.037136 38.7766834,17.2258531 38.7766834,17.4606208 L38.7858263,18.7956361 Z" id="Page-1"></path>
                    </g>
                </g>
            </g>
        </g>
    </g>
</svg>