<?xml version="1.0" encoding="UTF-8"?>
<svg width="81px" height="80px" viewBox="0 0 81 80" version="1.1" xmlns="http://www.w3.org/2000/svg" xmlns:xlink="http://www.w3.org/1999/xlink">
    <!-- Generator: Sketch 57 (83077) - https://sketch.com -->
    <title>Circle Icon@1,5x</title>
    <desc>Created with Sketch.</desc>
    <g id="Page-1" stroke="none" stroke-width="1" fill="none" fill-rule="evenodd">
        <g id="EPIPAY-Homepage" transform="translate(-171.000000, -4865.000000)">
            <g id="Bubble-List-Copy-2" transform="translate(171.000000, 4865.000000)">
                <g id="Circle-Icon" transform="translate(0.450000, 0.000000)">
                    <circle id="Oval" fill="#549CE1" cx="39.9999976" cy="39.9999976" r="39.9999976"></circle>
                    <g id="Icons/-Postpaid" transform="translate(14.399999, 14.399999)">
                        <path d="M35.7679536,36.3929803 L35.7679536,41.4035063 C35.7679536,42.2790298 35.1153135,42.9946606 34.2806724,43.0675649 L34.1399611,43.0736816 L17.8600358,43.0736816 C17.006625,43.0736816 16.3090685,42.404131 16.2380056,41.5478636 L16.2320433,41.4035063 L16.2320433,36.3929803 L35.7679536,36.3929803 Z M43.6323497,16.4495832 C45.4175252,18.8606392 46.3999972,22.0654492 46.3999972,25.4734781 C46.3999972,28.881507 45.4175252,32.0863171 43.6323497,34.497373 C43.3380032,34.8953618 42.8596078,34.8953618 42.564932,34.497373 C42.4171003,34.2977116 42.3436783,34.037129 42.3436783,33.7765465 C42.3436783,33.5159639 42.4184173,33.2536026 42.564932,33.0557199 C44.0646506,31.0302017 44.890072,28.3376632 44.890072,25.4734781 C44.890072,22.6092931 44.0646506,19.9167546 42.564932,17.8912364 C42.2702563,17.4936923 42.2702563,16.847572 42.564932,16.4495832 C42.8596078,16.0515945 43.3380032,16.0515945 43.6323497,16.4495832 Z M9.43506485,16.4495832 C9.72974062,16.847572 9.72974062,17.4936923 9.43506485,17.8912364 C7.93534628,19.9167546 7.10992488,22.6092931 7.10992488,25.4734781 C7.10992488,28.3376632 7.93534628,31.0302017 9.43506485,33.0557199 C9.58157962,33.2536026 9.65631861,33.5159639 9.65631861,33.7765465 C9.65631861,34.037129 9.58289661,34.2977116 9.43506485,34.497373 C9.14038908,34.8953618 8.66199368,34.8953618 8.36764715,34.497373 C6.58247172,32.0863171 5.59999967,28.881507 5.59999967,25.4734781 C5.59999967,22.0654492 6.58247172,18.8606392 8.36764715,16.4495832 C8.66199368,16.0515945 9.14038908,16.0515945 9.43506485,16.4495832 Z M35.7679536,12.1754379 L35.7679536,34.7228049 L16.2320433,34.7228049 L16.2320433,12.1754379 L35.7679536,12.1754379 Z M41.7816542,18.9509093 C44.4452598,22.5465932 44.4452598,28.3985844 41.7816542,31.996047 C41.4873077,32.3935911 41.0085831,32.3935911 40.7142365,31.996047 C40.5664048,31.7963856 40.4929828,31.535803 40.4929828,31.2752205 C40.4929828,31.0146379 40.5664048,30.7540553 40.7142365,30.5561726 C42.7888198,27.7524641 42.7888198,23.1944922 40.7142365,20.3925624 C40.4195608,19.9950183 40.4195608,19.348898 40.7142365,18.9509093 C41.0085831,18.5533652 41.4873077,18.5533652 41.7816542,18.9509093 Z M11.2857604,18.9509093 C11.5804361,19.348898 11.5804361,19.9950183 11.2857604,20.3925624 C9.21117712,23.1944922 9.21117712,27.7524641 11.2857604,30.5561726 C11.4335921,30.7540553 11.5070141,31.0146379 11.5070141,31.2752205 C11.5070141,31.535803 11.4335921,31.7963856 11.2857604,31.996047 C10.9914138,32.3935911 10.5126892,32.3935911 10.2183427,31.996047 C7.55473713,28.3985844 7.55473713,22.5465932 10.2183427,18.9509093 C10.5126892,18.5533652 10.9914138,18.5533652 11.2857604,18.9509093 Z M39.8986925,21.4940352 C41.5231956,23.6876425 41.5231956,27.2593137 39.8986925,29.4546998 C39.604346,29.8526886 39.1259506,29.8526886 38.8312748,29.4546998 C38.6834431,29.2550384 38.6100211,28.9944558 38.6100211,28.7338732 C38.6100211,28.4732906 38.6834431,28.212708 38.8312748,28.0130466 C39.8680726,26.6127488 39.8680726,24.3355416 38.8312748,22.9356883 C38.5369283,22.5376996 38.5369283,21.8915793 38.8312748,21.4940352 C39.1259506,21.0960464 39.604346,21.0960464 39.8986925,21.4940352 Z M13.1687221,21.4940352 C13.4630686,21.8915793 13.4630686,22.5376996 13.1687221,22.9356883 C12.1319243,24.3355416 12.1319243,26.6127488 13.1687221,28.0130466 C13.3165538,28.212708 13.3899758,28.4732906 13.3899758,28.7338732 C13.3899758,28.9944558 13.3165538,29.2550384 13.1687221,29.4546998 C12.8740463,29.8526886 12.3956509,29.8526886 12.1013044,29.4546998 C10.4768013,27.2593137 10.4768013,23.6876425 12.1013044,21.4940352 C12.3956509,21.0960464 12.8740463,21.0960464 13.1687221,21.4940352 Z M32.4158798,23.578727 L20.1267812,23.578727 L20.1267812,27.6119069 C20.1267812,27.7733167 20.2338125,27.8806938 20.3940173,27.8806938 L32.1486437,27.8806938 C32.3088486,27.8806938 32.4158798,27.7733167 32.4158798,27.6119069 L32.4158798,23.578727 Z M22.7984582,25.7297104 C22.9586631,25.7297104 23.0655233,25.8374317 23.0655233,25.9986694 C23.0655233,26.1599071 22.9586631,26.2676283 22.7984582,26.2676283 L21.7298558,26.2676283 C21.56948,26.2676283 21.4626197,26.1599071 21.4626197,25.9986694 C21.4626197,25.8374317 21.56948,25.7297104 21.7298558,25.7297104 L22.7984582,25.7297104 Z M30.8128052,24.6542187 C30.9731811,24.6542187 31.0800413,24.76194 31.0800413,24.9231777 C31.0800413,25.0844154 30.9731811,25.1921366 30.8128052,25.1921366 L28.6756004,25.1921366 C28.5153956,25.1921366 28.4085353,25.0844154 28.4085353,24.9231777 C28.4085353,24.76194 28.5153956,24.6542187 28.6756004,24.6542187 L30.8128052,24.6542187 Z M27.3399329,24.6542187 C27.5003088,24.6542187 27.606998,24.76194 27.606998,24.9231777 C27.606998,25.0844154 27.5003088,25.1921366 27.3399329,25.1921366 L25.2027281,25.1921366 C25.0423523,25.1921366 24.935663,25.0844154 24.935663,24.9231777 C24.935663,24.76194 25.0423523,24.6542187 25.2027281,24.6542187 L27.3399329,24.6542187 Z M23.8670606,24.6542187 C24.0272655,24.6542187 24.1341257,24.76194 24.1341257,24.9231777 C24.1341257,25.0844154 24.0272655,25.1921366 23.8670606,25.1921366 L21.7298558,25.1921366 C21.56948,25.1921366 21.4626197,25.0844154 21.4626197,24.9231777 C21.4626197,24.76194 21.56948,24.6542187 21.7298558,24.6542187 L23.8670606,24.6542187 Z M32.1486437,18.7391865 L20.3940173,18.7391865 C20.2338125,18.7391865 20.1267812,18.8465636 20.1267812,19.0079733 L20.1267812,20.8901699 L32.4158798,20.8901699 L32.4158798,19.0079733 C32.4158798,18.8465636 32.3088486,18.7391865 32.1486437,18.7391865 Z M34.1399611,7.99999952 C34.9933719,7.99999952 35.6909284,8.66955015 35.7619913,9.52581756 L35.7679536,9.67017486 L35.7679536,10.5052625 L16.2320433,10.5052625 L16.2320433,9.67017486 C16.2320433,8.79465137 16.8846834,8.07902056 17.7193245,8.00611628 L17.8600358,7.99999952 L34.1399611,7.99999952 Z" id="Combined-Shape" fill="#FFFFFF"></path>
                        <g id="Page-1-Copy-4" stroke-width="1" transform="translate(22.670359, 22.514284)"></g>
                    </g>
                </g>
            </g>
        </g>
    </g>
</svg>