<?xml version="1.0" encoding="UTF-8"?>
<svg width="81px" height="80px" viewBox="0 0 81 80" version="1.1" xmlns="http://www.w3.org/2000/svg" xmlns:xlink="http://www.w3.org/1999/xlink">
    <!-- Generator: Sketch 57 (83077) - https://sketch.com -->
    <title>Circle Icon@1,5x</title>
    <desc>Created with Sketch.</desc>
    <g id="Page-1" stroke="none" stroke-width="1" fill="none" fill-rule="evenodd">
        <g id="EPIPAY-Homepage" transform="translate(-171.000000, -4639.000000)">
            <g id="Bubble-List" transform="translate(171.000000, 4639.000000)">
                <g id="Circle-Icon" transform="translate(0.450000, 0.000000)">
                    <circle id="Oval" fill="#549CE1" cx="39.9999976" cy="39.9999976" r="39.9999976"></circle>
                    <g id="Icons/-Phone" transform="translate(14.399999, 14.399999)" fill="#FFFFFF">
                        <path d="M35.7719314,35.8476169 L35.7719314,40.7619023 C35.7719314,41.620609 35.1190255,42.3224942 34.2840446,42.3939982 L34.1432759,42.3999975 L17.856721,42.3999975 C17.0029626,42.3999975 16.3051221,41.7433074 16.2340302,40.9034869 L16.2280655,40.7619023 L16.2280655,35.8476169 L35.7719314,35.8476169 Z M43.6370098,16.2597736 C45.4191794,18.6294717 46.3999972,21.7793085 46.3999972,25.1288782 C46.3999972,28.4784478 45.4191794,31.6282846 43.6370098,33.9979827 C43.3431589,34.3891446 42.865569,34.3891446 42.5713894,33.9979827 C42.4238066,33.8017462 42.3505082,33.5456335 42.3505082,33.2895208 C42.3505082,33.0334081 42.4251214,32.7755471 42.5713894,32.5810588 C44.0685828,30.5902851 44.8926144,27.9439327 44.8926144,25.1288782 C44.8926144,22.3138236 44.0685828,19.6674712 42.5713894,17.6766975 C42.2772098,17.2859726 42.2772098,16.6509355 42.5713894,16.2597736 C42.865569,15.8686117 43.3431589,15.8686117 43.6370098,16.2597736 Z M9.42860747,16.2597736 C9.72278707,16.6509355 9.72278707,17.2859726 9.42860747,17.6766975 C7.93141408,19.6674712 7.10738251,22.3138236 7.10738251,25.1288782 C7.10738251,27.9439327 7.93141408,30.5902851 9.42860747,32.5810588 C9.57487553,32.7755471 9.64948868,33.0334081 9.64948868,33.2895208 C9.64948868,33.5456335 9.5761903,33.8017462 9.42860747,33.9979827 C9.13442787,34.3891446 8.65683797,34.3891446 8.36298706,33.9979827 C6.58081746,31.6282846 5.59999967,28.4784478 5.59999967,25.1288782 C5.59999967,21.7793085 6.58081746,18.6294717 8.36298706,16.2597736 C8.65683797,15.8686117 9.13442787,15.8686117 9.42860747,16.2597736 Z M35.7719314,12.0952374 L35.7719314,34.2095218 L16.2280655,34.2095218 L16.2280655,12.0952374 L35.7719314,12.0952374 Z M41.7894305,18.7181934 C44.4485511,22.2521992 44.4485511,28.0038089 41.7894305,31.5395629 C41.4955796,31.9302878 41.017661,31.9302878 40.7238101,31.5395629 C40.5762272,31.3433264 40.5029289,31.0872137 40.5029289,30.831101 C40.5029289,30.5749882 40.5762272,30.3188755 40.7238101,30.1243872 C42.7949002,27.3687718 42.7949002,22.8889845 40.7238101,20.1351173 C40.4296305,19.7443924 40.4296305,19.1093553 40.7238101,18.7181934 C41.017661,18.3274685 41.4955796,18.3274685 41.7894305,18.7181934 Z M11.2761868,18.7181934 C11.5703664,19.1093553 11.5703664,19.7443924 11.2761868,20.1351173 C9.20509671,22.8889845 9.20509671,27.3687718 11.2761868,30.1243872 C11.4237697,30.3188755 11.497068,30.5749882 11.497068,30.831101 C11.497068,31.0872137 11.4237697,31.3433264 11.2761868,31.5395629 C10.9823359,31.9302878 10.5044173,31.9302878 10.2105664,31.5395629 C7.55144579,28.0038089 7.55144579,22.2521992 10.2105664,18.7181934 C10.5044173,18.3274685 10.9823359,18.3274685 11.2761868,18.7181934 Z M39.9096393,21.2176961 C41.531407,23.3736757 41.531407,26.8840806 39.9096393,29.0418084 C39.6157884,29.4329703 39.1381985,29.4329703 38.8440189,29.0418084 C38.696436,28.8455719 38.6231376,28.5894591 38.6231376,28.3333464 C38.6231376,28.0772337 38.696436,27.821121 38.8440189,27.6248845 C39.8790709,26.2486064 39.8790709,24.010461 38.8440189,22.63462 C38.550168,22.2434581 38.550168,21.608421 38.8440189,21.2176961 C39.1381985,20.8265342 39.6157884,20.8265342 39.9096393,21.2176961 Z M13.155978,21.2176961 C13.4498289,21.608421 13.4498289,22.2434581 13.155978,22.63462 C12.120926,24.010461 12.120926,26.2486064 13.155978,27.6248845 C13.3035609,27.821121 13.3768593,28.0772337 13.3768593,28.3333464 C13.3768593,28.5894591 13.3035609,28.8455719 13.155978,29.0418084 C12.8617984,29.4329703 12.3842085,29.4329703 12.0903576,29.0418084 C10.4685899,26.8840806 10.4685899,23.3736757 12.0903576,21.2176961 C12.3842085,20.8265342 12.8617984,20.8265342 13.155978,21.2176961 Z M34.1432759,7.99999952 C34.9970343,7.99999952 35.6948748,8.65668963 35.7659667,9.49651013 L35.7719314,9.63809466 L35.7719314,10.4571422 L16.2280655,10.4571422 L16.2280655,9.63809466 C16.2280655,8.77938795 16.8809714,8.07750275 17.7159523,8.00599879 L17.856721,7.99999952 L34.1432759,7.99999952 Z" id="Combined-Shape"></path>
                    </g>
                </g>
            </g>
        </g>
    </g>
</svg>