<?xml version="1.0" encoding="UTF-8"?>
<svg width="171px" height="141px" viewBox="0 0 171 141" version="1.1" xmlns="http://www.w3.org/2000/svg" xmlns:xlink="http://www.w3.org/1999/xlink">
    <!-- Generator: Sketch 57 (83077) - https://sketch.com -->
    <title>Group 18@1,5x</title>
    <desc>Created with Sketch.</desc>
    <g id="Page-1" stroke="none" stroke-width="1" fill="none" fill-rule="evenodd">
        <g id="EPIPAY-Homepage" transform="translate(-480.000000, -1048.000000)">
            <g id="Icon" transform="translate(465.000000, 1032.000000)">
                <g id="Group-18">
                    <path d="M76.869724,47.47182 C76.869724,47.47182 47.809716,35.22026 47.876872,63.08088 C47.930638,85.3723 47.895206,98.787 30.955826,98.97825 C14.016652,99.17018 1.76233,138.32662 41.813262,139.49656 C81.864194,140.66633 97.486822,107.03625 109.479318,137.65155 C121.47202,168.26736 165.582388,160.25611 161.6379,129.70864 C157.693412,99.16083 164.240092,96.95015 177.985236,84.91704 C204.893162,61.36031 158.298022,1.37955 123.510802,39.19707 C88.723376,77.01408 89.521008,55.85996 76.869724,47.47182 Z" id="Shape-505-copy" fill="#ECF5FF"></path>
                    <g id="Group-19" transform="translate(78.000000, 16.000000)">
                        <path d="M6.89361684,0 L55.1489347,0 C58.9559346,0 62.0425515,3.1126344 62.0425515,6.95172395 L62.0425515,93.8482734 C62.0425515,97.6873195 58.9559346,100.799997 55.1489347,100.799997 L6.89361684,100.799997 C3.08666002,100.799997 0,97.6873195 0,93.8482734 L0,6.95172395 C0,3.1126344 3.08666002,0 6.89361684,0 Z" id="Fill-1" fill="#4A90E2"></path>
                        <path d="M57.9494665,8.41332392 C57.9494665,7.5069929 57.592291,6.63802741 56.9572166,5.99716536 C56.3217113,5.35673779 55.4600092,4.99655159 54.5612539,4.99655159 C44.8787382,4.99655159 17.1639426,4.99655159 7.48134076,4.99655159 C6.58271472,4.99655159 5.72092644,5.35673779 5.08546423,5.99716536 C4.45004509,6.63802741 4.093085,7.5069929 4.093085,8.41332392 C4.093085,22.8103442 4.093085,78.0937552 4.093085,84.7241357 C4.093085,85.0840612 4.38244456,85.3758598 4.73936158,85.3758598 C10.4108694,85.3758598 51.6314667,85.3758598 57.30319,85.3758598 C57.6599346,85.3758598 57.9494665,85.0840612 57.9494665,84.7241357 C57.9494665,78.0937552 57.9494665,22.8103442 57.9494665,8.41332392 Z" id="Fill-2" fill="#F2F8FF"></path>
                        <path d="M57.9494665,8.41332392 C57.9494665,7.5069929 57.592291,6.63802741 56.9572166,5.99716536 C56.3217113,5.35673779 55.4600092,4.99655159 54.5612539,4.99655159 C44.8787382,4.99655159 17.1639426,4.99655159 7.48134076,4.99655159 C6.58271472,4.99655159 5.72092644,5.35673779 5.08546423,5.99716536 C4.45004509,6.63802741 4.093085,7.5069929 4.093085,8.41332392 C4.093085,10.2598756 4.093085,12.1655169 4.093085,12.1655169 L57.9494665,12.1655169 C57.9494665,12.1655169 57.9494665,10.2598756 57.9494665,8.41332392 Z" id="Fill-3" fill="#C6E0FF"></path>
                        <path d="M62.0425515,69.2567237 L62.0425515,24.5917235 C60.901658,24.4166269 59.7495622,24.3292959 58.5957431,24.3310084 C46.2221318,24.3310084 36.1914884,34.4462267 36.1914884,46.9241367 C36.1914884,59.4019164 46.2221318,69.5172637 58.5957431,69.5172637 C59.7495622,69.518934 60.901658,69.4315161 62.0425515,69.2567237 Z" id="Fill-4" fill="#DDE9F6"></path>
                        <path d="M62.0425515,79.7275841 L0,79.7275841 C0,79.7275841 0,87.9874053 0,94.1644899 C0,95.9243188 0.693239343,97.6121105 1.92723984,98.8565126 C3.16124034,100.100915 4.83492434,100.799997 6.58004344,100.799997 C18.5018213,100.799997 43.5409457,100.799997 55.4625943,100.799997 C57.207541,100.799997 58.8813974,100.100915 60.1153548,98.8565126 C61.3493122,97.6121105 62.0425515,95.9243188 62.0425515,94.1644899 C62.0425515,87.9874053 62.0425515,79.7275841 62.0425515,79.7275841 Z" id="Fill-5" fill="#FED049"></path>
                        <path d="M24.1276589,86.8965494 L37.9148926,86.8965494 C38.8666426,86.8965494 39.6382968,87.674708 39.6382968,88.6344804 L39.6382968,92.1103424 C39.6382968,93.0701148 38.8666426,93.8482734 37.9148926,93.8482734 L24.1276589,93.8482734 C23.175909,93.8482734 22.4042547,93.0701148 22.4042547,92.1103424 L22.4042547,88.6344804 C22.4042547,87.674708 23.175909,86.8965494 24.1276589,86.8965494 Z" id="Fill-6" fill="#F6B445"></path>
                        <path d="M12.0638295,8.68965494 C12.0638295,9.64942733 11.2921752,10.4275859 10.3404253,10.4275859 C9.38867528,10.4275859 8.61702105,9.64942733 8.61702105,8.68965494 C8.61702105,7.72988255 9.38867528,6.95172395 10.3404253,6.95172395 C11.2921752,6.95172395 12.0638295,7.72988255 12.0638295,8.68965494 Z" id="Fill-7" fill="#4A90E2"></path>
                        <path d="M18.9574463,8.68965494 C18.9574463,9.64942733 18.1857921,10.4275859 17.2340421,10.4275859 C16.2822921,10.4275859 15.5106379,9.64942733 15.5106379,8.68965494 C15.5106379,7.72988255 16.2822921,6.95172395 17.2340421,6.95172395 C18.1857921,6.95172395 18.9574463,7.72988255 18.9574463,8.68965494 Z" id="Fill-8" fill="#4A90E2"></path>
                        <path d="M48.2553179,18.6827581 L37.9148926,18.6827581 C36.9631426,18.6827581 36.1914884,19.4609167 36.1914884,20.4206891 C36.1914884,21.3804615 36.9631426,22.1586201 37.9148926,22.1586201 L48.2553179,22.1586201 C49.2070678,22.1586201 49.9787221,21.3804615 49.9787221,20.4206891 C49.9787221,19.4609167 49.2070678,18.6827581 48.2553179,18.6827581 Z" id="Fill-9" fill="#4A90E2"></path>
                        <path d="M35.7606374,71.2551705 L23.6968079,71.2551705 C22.7450579,71.2551705 21.9734037,70.4770119 21.9734037,69.5172395 C21.9734037,68.5574671 22.7450579,67.7793085 23.6968079,67.7793085 L35.7606374,67.7793085 C36.7123873,67.7793085 37.4840416,68.5574671 37.4840416,69.5172395 C37.4840416,70.4770119 36.7123873,71.2551705 35.7606374,71.2551705 Z" id="Fill-10" fill="#4A90E2"></path>
                        <path d="M80.9999979,46.9241367 C80.9999979,58.4421874 71.7410087,67.7793085 60.3191473,67.7793085 C48.8972859,67.7793085 39.6382968,58.4421874 39.6382968,46.9241367 C39.6382968,35.4059991 48.8972859,26.0689648 60.3191473,26.0689648 C71.7410087,26.0689648 80.9999979,35.4059991 80.9999979,46.9241367 Z" id="Fill-11" fill="#F6B445"></path>
                        <path d="M75.8297852,46.9241367 C75.8297852,55.5629571 68.8857588,62.5655156 60.3191473,62.5655156 C51.7525359,62.5655156 44.8085095,55.5629571 44.8085095,46.9241367 C44.8085095,38.2853162 51.7525359,31.2827578 60.3191473,31.2827578 C68.8857588,31.2827578 75.8297852,38.2853162 75.8297852,46.9241367 Z" id="Fill-12" fill="#FED049"></path>
                        <path d="M56.8697538,46.8428884 L55.3902113,46.8428884 L55.3902113,50.1701573 L53.5332433,50.1701573 L53.5332433,41.0812127 L56.8822485,41.0812127 C57.9468814,41.0812127 58.7680835,41.3201782 59.3458548,41.7989782 C59.9236261,42.2777782 60.2127271,42.9538333 60.2127271,43.8280126 C60.2127271,44.4480195 60.0795942,44.965054 59.8133282,45.379116 C59.5470623,45.7931781 59.1437857,46.1229505 58.6030676,46.3684333 L60.5530995,50.0828263 L60.5530995,50.1701573 L58.5599825,50.1701573 L56.8697538,46.8428884 Z M55.3902113,45.3261091 L56.8882804,45.3261091 C57.3548921,45.3261091 57.7159453,45.2061919 57.9718708,44.9672264 C58.2277963,44.7278264 58.3557591,44.398054 58.3557591,43.9774747 C58.3557591,43.5490747 58.2346899,43.2119161 57.9934134,42.9664333 C57.7521368,42.7209506 57.3816049,42.597992 56.8822485,42.597992 L55.3902113,42.597992 L55.3902113,45.3261091 Z" id="Fill-13" fill="#F6B445"></path>
                        <path d="M67.5359025,46.8554884 C67.5359025,47.8960746 67.3015195,48.7294125 66.8331844,49.3555021 C66.3648493,49.9820263 65.73236,50.2952883 64.9361472,50.2952883 C64.2592802,50.2952883 63.7120994,50.0580607 63.2954664,49.5836056 L63.2954664,52.7670607 L61.5065728,52.7670607 L61.5065728,43.4156885 L63.1653494,43.4156885 L63.2273919,44.0774057 C63.6608281,43.5529851 64.2261047,43.290992 64.9236525,43.290992 C65.7487323,43.290992 66.3907004,43.5990402 66.848695,44.2147023 C67.3066897,44.8307988 67.5359025,45.6797781 67.5359025,46.7616401 L67.5359025,46.8554884 Z M65.7470089,46.7242746 C65.7470089,46.0960126 65.6362802,45.6111298 65.4156844,45.2700609 C65.1950887,44.9285574 64.8741047,44.7578057 64.4531632,44.7578057 C63.8917643,44.7578057 63.5061526,44.9741781 63.2954664,45.4073574 L63.2954664,48.1728401 C63.5143387,48.6177504 63.9042589,48.8406401 64.4656579,48.8406401 C65.3196047,48.8406401 65.7470089,48.1350401 65.7470089,46.7242746 Z" id="Fill-14" fill="#F6B445"></path>
                        <polygon id="Fill-15" fill="#A1D51C" points="34.4680842 29.5448268 22.4042547 29.5448268 22.4042547 26.0689648 13.7872337 33.0206888 22.4042547 39.9724127 22.4042547 36.4965508 34.4680842 36.4965508"></polygon>
                        <polygon id="Fill-16" fill="#A1D51C" points="13.7872337 57.3517226 25.8510631 57.3517226 25.8510631 60.8275846 34.4680842 53.8758606 25.8510631 46.9241367 25.8510631 50.3999987 13.7872337 50.3999987"></polygon>
                        <path d="M22.4042547,26.0689648 L16.0618256,31.2827578 C17.3367139,32.4163233 18.9818325,33.0350267 20.6808505,33.0206888 L34.4680842,33.0206888 L34.4680842,29.5448268 L22.4042547,29.5448268 L22.4042547,26.0689648 Z" id="Fill-17" fill="#C4F236"></path>
                        <path d="M25.8510631,50.3999987 L14.7347613,50.3999987 C15.9625145,52.5437365 18.2270245,53.867171 20.6808505,53.8758606 L34.4680842,53.8758606 L25.8510631,46.9241367 L25.8510631,50.3999987 Z" id="Fill-18" fill="#C4F236"></path>
                    </g>
                </g>
            </g>
        </g>
    </g>
</svg>