<?xml version="1.0" encoding="UTF-8"?>
<svg width="81px" height="80px" viewBox="0 0 81 80" version="1.1" xmlns="http://www.w3.org/2000/svg" xmlns:xlink="http://www.w3.org/1999/xlink">
    <!-- Generator: Sketch 57 (83077) - https://sketch.com -->
    <title>Circle Icon@1,5x</title>
    <desc>Created with Sketch.</desc>
    <g id="Page-1" stroke="none" stroke-width="1" fill="none" fill-rule="evenodd">
        <g id="EPIPAY-Homepage" transform="translate(-566.000000, -4639.000000)">
            <g id="Bubble-List-Copy-3" transform="translate(566.000000, 4639.000000)">
                <g id="Circle-Icon" transform="translate(0.450000, 0.000000)">
                    <circle id="Oval" fill="#549CE1" cx="39.9999976" cy="39.9999976" r="39.9999976"></circle>
                    <g id="Icons/BPJS-Copy" transform="translate(14.399999, 14.399999)" fill="#FFFFFF">
                        <path d="M21.3068769,42.0644521 C21.8256778,42.275236 22.1935761,42.7833239 22.1959157,43.3819966 C22.1959157,44.1647423 21.5560417,44.7999973 20.7652651,44.7999973 C19.9750733,44.7999973 19.3351993,44.1647423 19.3351993,43.3819966 L19.336954,43.3085416 L19.3422181,43.2368286 L19.9358854,43.8674383 C20.1049198,44.1490641 20.4114042,44.3372018 20.7652651,44.3372018 C21.2981034,44.3372018 21.7297552,43.908666 21.7297552,43.3796739 C21.7297552,43.1966461 21.679969,43.0266254 21.5911774,42.8820985 L21.5174387,42.7786785 L21.2039355,42.2572351 L21.3068769,42.0644521 Z M31.476428,42.0644521 C31.9975685,42.275236 32.3648819,42.7833239 32.3648819,43.3819966 C32.3648819,44.1647423 31.7255928,44.7999973 30.9348162,44.7999973 C30.1446245,44.7999973 29.5047505,44.1647423 29.5047505,43.3819966 L29.5065052,43.3085416 L29.5117692,43.2368286 L30.1054366,43.8674383 C30.2721314,44.1490641 30.5809554,44.3372018 30.9348162,44.3372018 C31.4670697,44.3372018 31.8993063,43.908666 31.8993063,43.3796739 C31.8993063,43.1966461 31.8480228,43.0266254 31.7595307,42.8820985 L31.686405,42.7786785 L31.3734867,42.2572351 L31.476428,42.0644521 Z M21.2384443,41.7375338 L20.9594499,42.2595578 L21.3524986,42.9197818 C21.5905504,43.2507647 21.51042,43.7112375 21.1746908,43.9469903 C21.1472008,43.9673138 21.1150316,43.9835727 21.0852021,43.9992508 C21.0787682,44.0038962 21.0717495,44.0085415 21.0647308,44.0102836 C21.0349012,44.0242197 21.0033169,44.0375751 20.9711477,44.0468659 C20.9664686,44.0468659 20.964129,44.0491886 20.9594499,44.0491886 L20.9152172,44.0608746 L20.8603103,44.0718348 L20.8500747,44.0741575 L20.8021134,44.0793835 L20.7541521,44.0811255 L20.7290016,44.0811255 L20.7015116,44.0808352 L20.6740216,44.0788028 L20.6465316,44.0741575 C20.6283999,44.0718348 20.6102682,44.0695121 20.5938911,44.0648667 C20.5851177,44.0648667 20.5757594,44.062544 20.566986,44.0602213 C20.5459298,44.053834 20.5277981,44.0491886 20.5073268,44.0422205 C20.5003081,44.0398978 20.4956289,44.0375751 20.4891951,44.0352525 C20.4663842,44.0265424 20.4412338,44.0172516 20.4160834,44.0038962 L20.4078949,43.9992508 L20.3997063,43.9946054 L20.3453112,43.9626685 C20.3382925,43.9586038 20.3289342,43.9516357 20.3225003,43.9469903 L20.2985197,43.9318929 L20.2651076,43.9071417 L20.2534828,43.8970525 C20.2400303,43.8836971 20.2259928,43.869761 20.2125403,43.8564055 C20.2055215,43.8517601 20.1990877,43.8447921 20.1944086,43.8384047 L20.1660412,43.8065403 L20.1394285,43.7698854 L19.1544671,42.7200306 L18.835115,41.7375338 L21.2384443,41.7375338 Z M31.4126746,41.7375338 L31.1336802,42.2595578 L31.5267289,42.9197818 C31.7618563,43.2507647 31.6840654,43.7112375 31.3483362,43.9469903 C31.3185067,43.9673138 31.2869224,43.9835727 31.2570928,43.9992508 C31.2500741,44.0038962 31.2430553,44.0085415 31.2366215,44.0102836 C31.2044523,44.0242197 31.1746227,44.0375751 31.1430385,44.0468659 C31.1383593,44.0468659 31.1360197,44.0491886 31.1313406,44.0491886 C31.1038506,44.0578987 31.074021,44.0648667 31.0447763,44.0695121 C31.035418,44.0718348 31.0283993,44.0718348 31.0219654,44.0741575 L30.9737117,44.0793835 L30.9254579,44.0811255 L30.9003075,44.0811255 C30.8821758,44.0811255 30.8640441,44.0811255 30.8459123,44.0788028 C30.8342145,44.0764802 30.8254411,44.0764802 30.8160827,44.0741575 C30.797951,44.0718348 30.781574,44.0695121 30.7634423,44.0648667 C30.754084,44.0648667 30.7453106,44.062544 30.7359523,44.0602213 C30.715481,44.053834 30.6950097,44.0491886 30.676878,44.0422205 C30.6698593,44.0398978 30.6651801,44.0375751 30.6581614,44.0352525 C30.6312563,44.0265424 30.6078605,44.0172516 30.583295,44.0038962 C30.5762762,44.0015735 30.5715971,43.9969281 30.5669179,43.9946054 C30.5487862,43.9835727 30.5306545,43.9742819 30.5119379,43.9626685 C30.5055041,43.9586038 30.4961458,43.9516357 30.489127,43.9469903 C30.4756745,43.9376996 30.4598823,43.9266668 30.4458449,43.9150534 L30.4337814,43.9071417 L30.3820914,43.8564055 C30.3750727,43.8517601 30.3703936,43.8447921 30.3639597,43.8384047 L30.3368353,43.8065403 L30.3136588,43.7698854 L29.3286974,42.7200306 L29.0087604,41.7375338 L31.4126746,41.7375338 Z M20.7629255,42.9853977 C20.5459298,42.9853977 20.3704616,43.1601799 20.3704616,43.3756092 C20.3704616,43.5910385 20.5459298,43.7658207 20.7629255,43.7658207 C20.980506,43.7658207 21.1559742,43.5910385 21.1559742,43.3756092 C21.1559742,43.1601799 20.980506,42.9853977 20.7629255,42.9853977 Z M30.9348162,42.9853977 C30.7178206,42.9853977 30.5417675,43.1601799 30.5417675,43.3756092 C30.5417675,43.5910385 30.7178206,43.7658207 30.9348162,43.7658207 C31.1518119,43.7658207 31.327865,43.5910385 31.327865,43.3756092 C31.327865,43.1601799 31.1518119,42.9853977 30.9348162,42.9853977 Z M17.4161623,15.2902521 L33.7838347,15.2902521 C34.953114,15.2902521 35.9131538,16.1907655 35.9944252,17.3311618 L35.9999979,17.4880952 L35.9999979,39.238322 C35.9999979,40.3991608 35.0907962,41.3501455 33.941922,41.4306454 L33.7838347,41.4361651 L17.4161623,41.4361651 C16.2446451,41.4361651 15.2866485,40.5356517 15.2055591,39.3952554 L15.1999991,39.238322 L15.1999991,17.4904179 C15.1999991,16.3273573 16.1092007,15.3762761 17.2580749,15.2957719 L17.4161623,15.2902521 L33.7838347,15.2902521 Z M20.616702,35.4639548 L20.0136763,37.1374511 L23.5183609,38.3829923 L24.1219715,36.7089153 L20.616702,35.4639548 Z M17.9712266,34.5244276 L17.368201,36.1985047 L19.2919172,36.8813748 L19.8949429,35.2072978 L17.9712266,34.5244276 Z M21.4782508,33.0750706 L20.8752251,34.7491477 L24.3799097,35.9946889 L24.9829354,34.3206118 L21.4782508,33.0750706 Z M32.701196,28.7995835 L26.3884355,30.6687663 L27.6447877,34.8559913 L33.9575482,32.9868085 L33.952869,32.973453 L32.701196,28.7995835 Z M18.8327754,32.1361242 L18.2291649,33.8102012 L20.153466,34.4930714 L20.7564916,32.8189943 L18.8327754,32.1361242 Z M29.6965957,30.2332624 L32.6871585,31.0839467 L30.6517275,33.4223124 L27.6605799,32.5716281 L29.6965957,30.2332624 Z M29.8521775,30.7593511 C29.2555857,30.9364561 28.9198566,31.557775 29.0959096,32.1477376 C29.2737174,32.7371196 29.9001388,33.0727479 30.4914666,32.8985464 C31.0880584,32.7214414 31.4261271,32.1001225 31.2477345,31.5101599 C31.0716814,30.9201972 30.4458449,30.5822462 29.8521775,30.7593511 Z M26.7902577,21.7995839 L25.4175116,25.9508072 L31.675292,27.9918689 L31.6799711,27.9785135 L33.0480381,23.8412263 L26.7902577,21.7995839 Z M30.5441071,24.8957264 C30.5441071,26.6336774 27.919103,26.6336774 27.919103,24.8957264 C27.919103,23.1583561 30.5441071,23.1583561 30.5441071,24.8957264 Z M21.0512782,21.2148473 L18.1882223,21.6590613 L18.2315045,21.9267511 L18.2455419,21.9244284 L19.7557381,21.6909983 L18.4028784,22.924926 L18.3917654,22.9359588 L18.4695563,23.4283686 L18.4672167,23.4126904 L20.4891951,21.5731219 L20.8249242,21.5208614 L20.843056,21.6364151 L18.9626219,23.3464938 L19.2164659,23.3081695 L19.2345976,23.2924914 L20.8682064,21.8042293 L21.057712,23.0108655 L21.0600516,23.0248016 L21.3296877,22.9841546 L21.0512782,21.2148473 Z M24.6723567,20.6521763 L21.8098857,21.096971 L22.0882952,22.8656975 L22.3579313,22.8250505 L22.3555917,22.811695 L22.1660861,21.6044782 L24.1787062,22.5277465 L24.201517,22.5370372 L24.9513511,22.4214835 L24.9513511,22.4191608 L24.9490115,22.4075474 L22.4585331,21.2688498 L22.9726548,21.1898785 L24.896371,22.0695964 L24.8595227,21.9221057 L23.1896505,21.1556188 L24.6998467,20.9221887 L24.7132992,20.919866 L24.6723567,20.6521763 Z M20.6558899,18.6947314 L20.3862538,18.7353784 L20.3885934,18.7493145 L20.5804386,19.9600154 L18.5607997,19.0326824 L18.5403285,19.0233916 L17.7951736,19.1389454 L20.3014442,20.2869337 L19.7873224,20.3664857 L17.847814,19.4792191 L17.8729645,19.6360005 L17.886417,19.6429686 L19.5475158,20.4048101 L18.0419988,20.6382402 L18.0285463,20.6405629 L18.0718284,20.9082526 L20.9342994,20.4640386 L20.6558899,18.6947314 Z M24.2769684,18.1320603 L22.2415374,19.9896297 L21.9216004,20.0395674 L21.9011291,19.9106583 L23.7651861,18.213935 L23.5347379,18.2499367 L23.5166062,18.2656148 L21.8783183,19.7608449 L21.686473,18.5495634 L21.6841335,18.5356273 L21.4144973,18.576855 L21.6929069,20.3461622 L24.5559628,19.9013675 L24.5150202,19.6336778 L24.5009827,19.6360005 L22.9954657,19.8694306 L24.3436463,18.6401482 L24.3547592,18.6291154 L24.2769684,18.1320603 Z M22.9042222,8.95221846 L22.9042222,14.8768137 L21.51042,14.8768137 L21.51042,8.95221846 L22.9042222,8.95221846 Z M29.689577,8.95221846 L29.689577,14.8768137 L28.2957747,14.8768137 L28.2957747,8.95221846 L29.689577,8.95221846 Z M26.7768051,5.59999967 C28.3255625,5.59999967 29.5958627,6.80621664 29.6846229,8.32208689 L29.689577,8.49174566 L28.2957747,8.49174566 C28.2957747,7.70587078 27.6864163,7.0593231 26.9146029,6.98991001 L26.7768051,6.98374077 L24.4231918,6.98374077 C23.6338125,6.98374077 22.9805996,7.58662873 22.9104568,8.35459727 L22.9042222,8.49174566 L21.51042,8.49174566 C21.51042,6.95416798 22.7254073,5.69303752 24.2522995,5.60491797 L24.4231918,5.59999967 L26.7768051,5.59999967 Z" id="Combined-Shape"></path>
                    </g>
                </g>
            </g>
        </g>
    </g>
</svg>