<?xml version="1.0" encoding="UTF-8"?>
<svg width="81px" height="80px" viewBox="0 0 81 80" version="1.1" xmlns="http://www.w3.org/2000/svg" xmlns:xlink="http://www.w3.org/1999/xlink">
    <!-- Generator: Sketch 57 (83077) - https://sketch.com -->
    <title>Circle Icon@1,5x</title>
    <desc>Created with Sketch.</desc>
    <g id="Page-1" stroke="none" stroke-width="1" fill="none" fill-rule="evenodd">
        <g id="EPIPAY-Homepage" transform="translate(-961.000000, -4752.000000)">
            <g id="Bubble-List-Copy-7" transform="translate(961.000000, 4752.000000)">
                <g id="Circle-Icon" transform="translate(0.450000, 0.000000)">
                    <circle id="Oval" fill="#549CE1" cx="39.9999976" cy="39.9999976" r="39.9999976"></circle>
                    <g id="Icons/BPJS-Copy-5" transform="translate(14.399999, 14.399999)" fill="#FFFFFF">
                        <path d="M38.712807,18.6758027 C40.3131862,18.6758027 41.5999975,19.9987903 41.5999975,21.6416433 L41.5999975,21.6416433 L41.5999975,39.4366874 C41.5999975,41.0795404 40.3131862,42.3999975 38.712807,42.3999975 L38.712807,42.3999975 L13.289162,42.3999975 C11.6887828,42.3999975 10.3999994,41.0795404 10.3999994,39.4366874 L10.3999994,39.4366874 L10.3999994,21.6416433 C10.3999994,19.9987903 11.6887828,18.6758027 13.289162,18.6758027 L13.289162,18.6758027 Z M31.1999981,21.0484752 L15.5999991,21.0484752 C13.9996199,21.0484752 12.7113295,22.3709567 12.7113295,24.0138098 L12.7113295,24.0138098 L12.7113295,37.0624965 C12.7113295,38.7053495 13.9996199,40.027831 15.5999991,40.027831 L15.5999991,40.027831 L31.1999981,40.027831 C32.8003773,40.027831 34.0886677,38.7053495 34.0886677,37.0624965 L34.0886677,37.0624965 L34.0886677,24.0138098 C34.0886677,22.3709567 32.8003773,21.0484752 31.1999981,21.0484752 L31.1999981,21.0484752 Z M37.8440861,35.8761602 L37.7183036,35.8831313 C37.1398733,35.9476283 36.6889141,36.4517155 36.6889141,37.0624965 C36.6889141,37.7163986 37.2065968,38.2483266 37.8440861,38.2483266 C38.4815754,38.2483266 38.9997512,37.7163986 38.9997512,37.0624965 C38.9997512,36.4080883 38.4815754,35.8761602 37.8440861,35.8761602 L37.8440861,35.8761602 Z M37.8440861,31.1313213 L37.7183036,31.1382922 C37.1398733,31.2027871 36.6889141,31.7068428 36.6889141,32.3171514 C36.6889141,32.9715596 37.2065968,33.5034877 37.8440861,33.5034877 C38.4815754,33.5034877 38.9997512,32.9715596 38.9997512,32.3171514 C38.9997512,31.6632493 38.4815754,31.1313213 37.8440861,31.1313213 L37.8440861,31.1313213 Z M39.282751,27.5728186 L36.4093654,27.5728186 C36.0879091,27.5667452 35.8221653,27.8354928 35.8221653,28.1654806 C35.8221653,28.4959744 36.0879091,28.7647221 36.4093654,28.7586487 L36.4093654,28.7586487 L39.282751,28.7586487 C39.6047004,28.7647221 39.8704442,28.4959744 39.8704442,28.1654806 C39.8704442,27.8354928 39.6047004,27.5667452 39.282751,27.5728186 L39.282751,27.5728186 Z M39.282751,25.200146 L36.4093654,25.200146 C36.0879091,25.1960971 35.8241374,25.4633264 35.8241374,25.7933142 C35.8241374,26.1233019 36.0879091,26.3905312 36.4093654,26.3864823 L36.4093654,26.3864823 L39.282751,26.3864823 C39.6047004,26.3905312 39.8684721,26.1233019 39.8684721,25.7933142 C39.8684721,25.4633264 39.6047004,25.1960971 39.282751,25.200146 L39.282751,25.200146 Z M39.282751,22.8274735 L36.4093654,22.8274735 C36.0879091,22.8219062 35.8221653,23.0906539 35.8221653,23.4206416 C35.8221653,23.7511355 36.0879091,24.0198831 36.4093654,24.0138098 L36.4093654,24.0138098 L39.282751,24.0138098 C39.6047004,24.0198831 39.8704442,23.7511355 39.8704442,23.4206416 C39.8704442,23.0906539 39.6047004,22.8219062 39.282751,22.8274735 L39.282751,22.8274735 Z M33.4955512,8.00029457 C34.0216155,7.98409885 34.2908105,8.63850704 33.9156138,9.01606969 L33.9156138,9.01606969 L27.9568391,15.1329896 C28.3744365,15.6193672 28.603696,16.2444206 28.5997518,16.890731 L28.5997518,16.890731 L23.4002451,16.890731 C23.3963009,16.2444206 23.6255604,15.6193672 24.0451299,15.1329896 L24.0451299,15.1329896 L18.0863552,9.01606969 C17.718554,8.6466049 17.9729581,8.00231903 18.4891617,8.00029457 L18.4891617,8.00029457 L18.5817056,8.00701174 C18.7034725,8.02634943 18.8172246,8.08643554 18.904787,8.17794134 L18.904787,8.17794134 L24.9986522,14.433537 C25.6400857,14.1607404 26.3618833,14.1622588 27.0033169,14.4350554 L27.0033169,14.4350554 L33.0986612,8.17794134 C33.2026907,8.06912637 33.3451767,8.00383738 33.4955512,8.00029457 Z" id="Combined-Shape"></path>
                    </g>
                </g>
            </g>
        </g>
    </g>
</svg>